<svg width="370" height="209" viewBox="0 0 370 209" fill="none" xmlns="http://www.w3.org/2000/svg">
<path d="M267.999 82.874V160.116L255.126 172.989H177.884L165.01 160.116V150H183.37L190.137 156.77H252.492L252.592 104.063H199.409V98.0996H240.714L252.592 86.2178H190.235L181.296 95.1377L181.264 120H165.01V82.874L177.884 70H255.126L267.999 82.874ZM240.714 127.829L234.775 133.77L228.837 127.829L234.775 121.888L240.714 127.829Z" fill="#F5F8FF"/>
<path d="M210.801 139.891V150.193H194.582V146.608L191.009 143.035H126.632L123.22 146.448V185.023L126.37 188.175H191.271L194.582 184.864V180.193H210.801V191.582L197.989 204.394H119.65L107 191.741V139.729L119.914 126.816H197.728L210.801 139.891ZM150.4 173.113L147.985 175.474H133.499L131.085 173.113V169.5H150.4V173.113ZM137.523 167.747H131.085V163.884H137.523V167.747ZM150.401 167.747H143.963V163.884H150.401V167.747ZM150.4 158.517V162H131.085V158.517L133.499 156.156H147.985L150.4 158.517Z" fill="#F5F8FF"/>
</svg>
