<svg width="370" height="209" viewBox="0 0 370 209" fill="none" xmlns="http://www.w3.org/2000/svg">
<g clip-path="url(#clip0_8417_138329)">
<path d="M140.5 99.7695H156.25V84.0195H187.75V99.7695H203.5V84.0195H235V120.682L217.551 138.131V187.244L172 210.02L109 178.52V84.0195H140.5V99.7695ZM235 178.52L232 180.02V144.115L235 141.115V178.52ZM131.106 161.326C128.714 161.326 126.774 163.266 126.774 165.658C126.775 168.05 128.714 169.989 131.106 169.989H140.625C143.017 169.989 144.957 168.05 144.957 165.658C144.957 163.266 143.017 161.326 140.625 161.326H131.106ZM165.667 161.326C163.275 161.326 161.336 163.266 161.336 165.658C161.336 168.05 163.275 169.989 165.667 169.989H181.817C184.21 169.989 186.149 168.05 186.149 165.658C186.149 163.266 184.21 161.326 181.817 161.326H165.667ZM197.858 161.326C195.466 161.326 193.526 163.266 193.526 165.658C193.527 168.05 195.466 169.989 197.858 169.989H205.238C207.63 169.989 209.57 168.05 209.57 165.658C209.57 163.266 207.631 161.326 205.238 161.326H197.858ZM165.681 148.953C163.281 148.953 161.336 150.898 161.336 153.298C161.336 155.697 163.281 157.643 165.681 157.643H171.605C174.005 157.642 175.95 155.697 175.95 153.298C175.95 150.898 174.005 148.953 171.605 148.953H165.681ZM131.053 149.025C128.69 149.025 126.774 150.941 126.774 153.304C126.775 155.666 128.69 157.582 131.053 157.582H149.556C151.918 157.582 153.834 155.666 153.834 153.304C153.834 150.941 151.918 149.025 149.556 149.025H131.053ZM197.805 149.025C195.442 149.026 193.526 150.941 193.526 153.304C193.527 155.666 195.442 157.582 197.805 157.582H210.532C212.895 157.582 214.81 155.666 214.811 153.304C214.811 150.941 212.895 149.025 210.532 149.025H197.805ZM131.106 136.619C128.714 136.619 126.774 138.559 126.774 140.951C126.774 143.343 128.714 145.283 131.106 145.283H147.257C149.649 145.283 151.588 143.343 151.588 140.951C151.588 138.559 149.649 136.619 147.257 136.619H131.106ZM197.858 136.619C195.466 136.619 193.526 138.559 193.526 140.951C193.526 143.343 195.466 145.283 197.858 145.283H205.238C207.631 145.283 209.57 143.343 209.57 140.951C209.57 138.559 207.631 136.619 205.238 136.619H197.858ZM165.581 136.709C163.236 136.709 161.336 138.61 161.336 140.955C161.336 143.3 163.237 145.201 165.582 145.201H179.406C181.751 145.201 183.652 143.3 183.652 140.955C183.652 138.61 181.751 136.709 179.406 136.709H165.581ZM165.681 124.267C163.281 124.267 161.336 126.213 161.336 128.612C161.336 131.012 163.281 132.957 165.681 132.957H171.605C174.005 132.957 175.95 131.012 175.95 128.612C175.95 126.213 174.005 124.267 171.605 124.267H165.681ZM131.053 124.318C128.69 124.318 126.774 126.234 126.774 128.597C126.774 130.959 128.69 132.875 131.053 132.875H144.101C146.463 132.875 148.379 130.959 148.379 128.597C148.379 126.234 146.463 124.318 144.101 124.318H131.053ZM197.805 124.318C195.442 124.319 193.526 126.234 193.526 128.597C193.526 130.959 195.442 132.875 197.805 132.875H213.849C216.211 132.875 218.126 130.959 218.126 128.597C218.126 126.234 216.211 124.319 213.849 124.318H197.805Z" fill="#F5F8FF"/>
<path d="M295.808 135L304.923 144.115V198.808L295.808 207.923H241.115L232 198.808V144.115L241.115 135H295.808ZM267.959 161.406L257.553 151L248.16 160.393L258.566 170.799L248.16 181.204L257.553 190.597L267.959 180.191L278.364 190.597L287.757 181.204L277.352 170.799L287.757 160.393L278.364 151L267.959 161.406Z" fill="#F5F8FF"/>
</g>
<defs>
<clipPath id="clip0_8417_138329">
<rect width="370" height="208.125" fill="white"/>
</clipPath>
</defs>
</svg>
