<svg width="370" height="209" viewBox="0 0 370 209" fill="none" xmlns="http://www.w3.org/2000/svg">
<path d="M265 82.3252V118.551H224.97L207.39 136.131V179H106.309L98.9998 171.69V81.9521L106.952 74H256.675L265 82.3252ZM112 138.333L115.75 142H138.25L142 138.333V131H112V138.333ZM132 130.002H142V124.002H132V130.002ZM112 130H122V124H112V130ZM112 115.667V123H142V115.667L138.25 112H115.75L112 115.667Z" fill="#F5F8FF"/>
<path d="M285.647 133L294.762 142.115V196.808L285.647 205.923H230.955L221.84 196.808V142.115L230.955 133H285.647ZM252.459 185.042L254.834 189H261.167L263.542 185.042H252.459ZM254.042 154.958L246.125 157.333L242.959 170L239 177.125L243.75 181.875H272.25L277 177.125L273.042 170L269.875 157.333L261.959 154.958L260.375 151H255.625L254.042 154.958Z" fill="#F5F8FF"/>
</svg>
