<svg width="90" height="15" viewBox="0 0 90 15" fill="none" xmlns="http://www.w3.org/2000/svg">
<g clip-path="url(#clip0_25260_368513)">
<path d="M15.4012 1.72461H8.84491V13.3743H15.4012V1.72461Z" fill="#FF5F00"/>
<path d="M9.26146 7.54946C9.26043 6.42751 9.51755 5.32004 10.0134 4.31088C10.5092 3.30171 11.2307 2.41732 12.1233 1.72464C11.018 0.865548 9.69046 0.331295 8.29254 0.182939C6.89462 0.0345826 5.48268 0.278105 4.21812 0.885681C2.95356 1.49326 1.88739 2.44037 1.14148 3.61877C0.395565 4.79716 0 6.15928 0 7.54946C0 8.93963 0.395565 10.3018 1.14148 11.4801C1.88739 12.6585 2.95356 13.6057 4.21812 14.2132C5.48268 14.8208 6.89462 15.0643 8.29254 14.916C9.69046 14.7676 11.018 14.2334 12.1233 13.3743C11.2307 12.6816 10.5092 11.7972 10.0134 10.788C9.51756 9.77887 9.26044 8.6714 9.26146 7.54946Z" fill="#EB001B"/>
<path d="M24.2462 7.54946C24.2462 8.93961 23.8507 10.3017 23.1048 11.4801C22.359 12.6585 21.2928 13.6056 20.0283 14.2132C18.7638 14.8208 17.3518 15.0643 15.9539 14.916C14.556 14.7676 13.2286 14.2334 12.1232 13.3743C13.015 12.6809 13.736 11.7964 14.2317 10.7874C14.7275 9.77836 14.9851 8.67123 14.9851 7.54946C14.9851 6.42769 14.7275 5.32057 14.2317 4.31157C13.736 3.30256 13.015 2.41802 12.1232 1.72464C13.2286 0.865551 14.556 0.331292 15.9539 0.182937C17.3518 0.0345824 18.7638 0.278115 20.0283 0.885698C21.2928 1.49328 22.359 2.4404 23.1048 3.6188C23.8507 4.79719 24.2462 6.15931 24.2462 7.54946Z" fill="#F79E1B"/>
<path d="M23.5314 12.1406V11.9021H23.6287V11.8535H23.381V11.9021H23.4783V12.1406H23.5314ZM24.0123 12.1406V11.853H23.9364L23.8491 12.0508L23.7617 11.853H23.6857V12.1406H23.7394V11.9237L23.8213 12.1107H23.8768L23.9587 11.9232V12.1406H24.0123Z" fill="#F79E1B"/>
<path d="M31.8778 15H31.6003V12.5001V7.5V2.49986V0H31.8778V4.99993V10.0001V15Z" fill="white"/>
<path d="M39.557 12.1409H38.7783V3.30526H39.557V12.1409ZM45.2377 3.30526C45.9207 3.29561 46.6005 3.40015 47.2483 3.61447C47.8112 3.80151 48.3286 4.10243 48.7675 4.49806C49.1881 4.8863 49.5172 5.36142 49.7311 5.88963C50.1823 7.07119 50.1823 8.3749 49.7311 9.55646C49.5172 10.0847 49.1882 10.5599 48.7675 10.9481C48.3286 11.3438 47.8113 11.6447 47.2483 11.8317C46.6005 12.0461 45.9207 12.1506 45.2377 12.1409H41.976V3.30526H45.2377ZM42.7547 4.03732V11.4089H45.2377C45.823 11.4191 46.4059 11.3305 46.9611 11.1469C47.4285 10.9904 47.857 10.7376 48.2184 10.4054C48.5617 10.0813 48.8259 9.68412 48.9908 9.24405C49.3396 8.25938 49.3396 7.18673 48.9908 6.20206C48.8254 5.76135 48.5614 5.36331 48.2184 5.03769C47.8581 4.704 47.4293 4.45105 46.9611 4.29609C46.4054 4.11466 45.8228 4.02719 45.2377 4.03733L42.7547 4.03732ZM59.1202 3.20427C59.4942 3.20325 59.867 3.24561 60.231 3.33049C60.5795 3.41143 60.9169 3.53325 61.2361 3.69335C61.5427 3.84697 61.8281 4.03894 62.0851 4.26453C62.3363 4.48532 62.5544 4.74034 62.7329 5.02191L62.0819 5.451C61.9288 5.21971 61.7453 5.00961 61.5361 4.82627C61.3248 4.6407 61.0912 4.48169 60.8404 4.35286C60.5815 4.22036 60.3071 4.11969 60.0235 4.05311C59.7276 3.98318 59.4244 3.94824 59.1202 3.949C58.6125 3.94459 58.1087 4.0367 57.6362 4.22032C57.1897 4.39428 56.7836 4.65628 56.4427 4.99036C56.0987 5.33118 55.8274 5.73679 55.6449 6.18316C55.2576 7.17408 55.2576 8.27212 55.6449 9.26304C55.8274 9.70943 56.0987 10.115 56.4427 10.4558C56.7836 10.7899 57.1896 11.0519 57.6362 11.2258C58.1087 11.4095 58.6125 11.5017 59.1202 11.4972C59.4232 11.4981 59.7252 11.4642 60.0202 11.3962C60.303 11.3314 60.5764 11.2317 60.8341 11.0996C61.0849 10.9708 61.3186 10.8119 61.5298 10.6263C61.7401 10.4416 61.9237 10.2292 62.0756 9.9951L62.7138 10.4558C62.528 10.7319 62.3058 10.9824 62.0532 11.2006C61.7969 11.4214 61.5139 11.6101 61.2107 11.7623C60.8956 11.9203 60.5624 12.04 60.2182 12.1188C59.2473 12.3374 58.2325 12.2638 57.3043 11.9074C56.7624 11.6958 56.2687 11.3793 55.8522 10.9765C55.4378 10.5701 55.111 10.0849 54.8916 9.55014C54.4279 8.37634 54.4279 7.07299 54.8916 5.89919C55.1105 5.36322 55.4373 4.87684 55.8522 4.46963C56.2688 4.06687 56.7624 3.75038 57.3043 3.5387C57.8821 3.31238 58.4987 3.19882 59.1202 3.20427ZM65.1265 7.23075C65.2405 7.04344 65.3814 6.87339 65.5446 6.7259C65.7004 6.58544 65.8755 6.4675 66.0647 6.37559C66.2516 6.28529 66.4487 6.21751 66.6519 6.17371C66.8532 6.12982 67.0587 6.10758 67.2648 6.10738C67.6146 6.10339 67.9624 6.15998 68.2924 6.2746C68.5894 6.37801 68.8619 6.54014 69.0935 6.75111C69.3199 6.96177 69.4965 7.2193 69.6105 7.50528C69.7355 7.82191 69.7973 8.15947 69.7925 8.49932V12.1409H69.0648V8.72029C69.0686 8.44579 69.0255 8.17262 68.9372 7.91236C68.8591 7.68413 68.7304 7.47606 68.5605 7.30339C68.3891 7.13376 68.1821 7.00341 67.9542 6.92154C67.6921 6.82924 67.4153 6.78435 67.1371 6.789C66.8677 6.78692 66.6002 6.83508 66.3489 6.93099C66.1107 7.02154 65.8935 7.15897 65.7106 7.33495C65.5273 7.51286 65.3819 7.72529 65.283 7.95969C65.1764 8.21252 65.1232 8.48419 65.1265 8.75807V12.1409H64.3988V3.05273H65.1265L65.1265 7.23075ZM74.12 6.10739C74.5031 6.10401 74.8825 6.18036 75.2337 6.33148C75.5701 6.4765 75.8723 6.68927 76.1209 6.95622C76.3776 7.23598 76.578 7.56158 76.7114 7.91558C76.8595 8.30608 76.9351 8.71978 76.9348 9.13682C76.9348 9.19149 76.9338 9.24314 76.9317 9.29138C76.9295 9.33981 76.9263 9.38718 76.9222 9.43347H71.886C71.9047 9.75229 71.9837 10.0648 72.119 10.3548C72.241 10.6138 72.4135 10.8465 72.6265 11.0396C72.8351 11.227 73.079 11.3718 73.3444 11.4656C73.6219 11.5636 73.9146 11.6127 74.2093 11.6107C74.5982 11.6174 74.9838 11.5399 75.3392 11.3835C75.6732 11.2307 75.9777 11.0214 76.239 10.765L76.6284 11.2573C76.4513 11.4351 76.2555 11.5938 76.0445 11.7307C75.8541 11.8532 75.6507 11.9548 75.438 12.0336C75.2348 12.1086 75.024 12.1615 74.8093 12.1914C74.5957 12.2209 74.3804 12.2357 74.1647 12.2356C73.7495 12.2399 73.3375 12.1638 72.9519 12.0115C72.5926 11.8693 72.2667 11.6556 71.9946 11.3835C71.7218 11.1071 71.5089 10.7785 71.3689 10.418C71.2159 10.0211 71.1401 9.59927 71.1456 9.1746C71.1411 8.75283 71.218 8.33409 71.3722 7.94081C71.5136 7.57914 71.7262 7.2488 71.9976 6.96888C72.2656 6.69608 72.5871 6.48025 72.9424 6.3346C73.3155 6.18133 73.716 6.10405 74.12 6.10739ZM74.1072 6.74479C73.8199 6.7413 73.5346 6.79385 73.2678 6.89944C73.0199 6.99926 72.7936 7.14492 72.6009 7.32863C72.4058 7.5165 72.2469 7.73781 72.1318 7.98181C72.0075 8.24467 71.9288 8.5263 71.8988 8.81496H76.1945C76.1731 8.5243 76.1018 8.23937 75.9837 7.97236C75.8764 7.72869 75.7238 7.50712 75.5337 7.31918C75.3461 7.13499 75.1235 6.98938 74.8786 6.89079C74.6338 6.7922 74.3716 6.74258 74.1072 6.74479ZM81.1217 6.10739C81.5474 6.10334 81.9695 6.18381 82.3632 6.34404C82.736 6.49625 83.0689 6.73046 83.3366 7.02887L82.8642 7.51483C82.6374 7.28838 82.3702 7.10542 82.076 6.97521C81.7689 6.84372 81.4372 6.7781 81.1026 6.78267C80.7881 6.78009 80.4763 6.84131 80.1867 6.96254C79.9097 7.07835 79.659 7.2479 79.4495 7.46117C79.2375 7.67905 79.0714 7.93649 78.961 8.21846C78.7272 8.83492 78.7272 9.5143 78.961 10.1308C79.0693 10.4102 79.2337 10.665 79.4443 10.8798C79.655 11.0946 79.9075 11.2649 80.1867 11.3804C80.4763 11.5017 80.7881 11.5629 81.1026 11.5603C81.4422 11.564 81.7786 11.4951 82.0888 11.3583C82.3836 11.2273 82.6525 11.0457 82.8833 10.8219L83.3366 11.3142C83.0665 11.6113 82.7329 11.8452 82.3599 11.9989C81.5641 12.3134 80.6768 12.3145 79.8802 12.0021C79.5154 11.8554 79.1846 11.6368 78.9081 11.3596C78.6315 11.0824 78.415 10.7523 78.2718 10.3896C77.9696 9.60611 77.9696 8.74006 78.2718 7.95657C78.4143 7.59305 78.6305 7.26219 78.9071 6.98434C79.1837 6.70649 79.5148 6.48753 79.8802 6.34091C80.2741 6.18194 80.6962 6.10253 81.1217 6.10739ZM85.5257 8.70764H86.5023L89.0298 6.20205H89.949L87.0895 9.00428L90 12.1409H89.0746L86.5023 9.3577H85.5257V12.1409H84.798V3.05273H85.5257V8.70764Z" fill="white"/>
</g>
<defs>
<clipPath id="clip0_25260_368513">
<rect width="90" height="15" fill="white"/>
</clipPath>
</defs>
</svg>
