<svg width="370" height="209" viewBox="0 0 370 209" fill="none" xmlns="http://www.w3.org/2000/svg">
<path d="M265 82.3252V118.551H224.971L207.391 136.131V179H106.31L99 171.69V81.9521L106.952 74H256.675L265 82.3252ZM117 143.582V159.775H181.775V143.582L173.679 135.484H125.097L117 143.582ZM149.388 95C139.699 95.0001 131.845 102.855 131.845 112.544C131.845 118.796 135.119 124.281 140.043 127.388H158.732C163.657 124.281 166.931 118.796 166.932 112.544C166.932 102.855 159.076 95 149.388 95Z" fill="#F5F8FF"/>
<path d="M294.763 142.115V196.808L285.647 205.923H230.955L221.84 196.808V142.115L230.955 133H285.647L294.763 142.115ZM251.021 176.124L275.416 190.207L282.085 178.656L264.338 168.411V149H251L251.021 176.124Z" fill="#F5F8FF"/>
</svg>
