<svg width="370" height="209" viewBox="0 0 370 209" fill="none" xmlns="http://www.w3.org/2000/svg">
<g clip-path="url(#clip0_9378_110023)">
<path d="M152.953 189.502L146.731 193.253L102.661 168.909L102.541 162.611L145.629 136.636L152.019 140.165L152.953 189.502Z" fill="#F5F8FF"/>
<path d="M264.52 76.2637L264.458 82.5625L250.92 90.2012C267.259 120.054 261.426 158.271 234.847 181.751C216.138 198.278 191.45 203.704 168.842 198.53L164.562 174.064C182.679 181.937 204.499 179.204 220.281 165.263C238.516 149.154 242.895 123.201 232.488 102.428L240.605 96.0225L220.641 107.289L214.355 103.578L214.84 54.2344L221.167 50.6641L264.52 76.2637ZM136.201 70.082C154.485 53.9305 178.48 48.3815 200.664 52.9678L204.133 76.8145C186.506 70.1515 165.87 73.2272 150.766 86.5703C134.886 100.598 129.514 122.091 135.263 141.128L117.386 156.089C104.575 127.178 111.241 92.1308 136.201 70.082Z" fill="#F5F8FF"/>
</g>
<defs>
<clipPath id="clip0_9378_110023">
<rect width="370" height="208.125" fill="white"/>
</clipPath>
</defs>
</svg>
