<svg width="80" height="80" viewBox="0 0 80 80" fill="none" xmlns="http://www.w3.org/2000/svg">
<path d="M9.53302 56.0402L9.53304 56.0399H9.52551H9.4872C9.24072 56.0399 9.09043 56.119 9.00353 56.2059C8.91663 56.2928 8.8375 56.4431 8.8375 56.6896V63.9747C8.8375 65.7464 10.2781 67.187 12.0498 67.187H19.4702C19.7167 67.187 19.867 67.1079 19.9539 67.021C20.0408 66.9341 20.1199 66.7838 20.1199 66.5373C20.1199 66.2908 20.0408 66.1405 19.9539 66.0536C19.867 65.9667 19.7167 65.8876 19.4702 65.8876H12.0498C10.9884 65.8876 10.1354 65.0346 10.1354 63.9732V56.6881C10.1354 56.3296 9.85142 56.0642 9.53302 56.0402Z" fill="white" stroke="white" stroke-width="0.2"/>
<path d="M71.0027 16.0254C71.0027 14.2537 69.5621 12.8131 67.7904 12.8131H60.37C60.1239 12.8131 59.9727 12.8921 59.8851 12.9793C59.7979 13.0663 59.7188 13.216 59.7188 13.4613C59.7188 13.7078 59.7979 13.8581 59.8848 13.945C59.9717 14.0319 60.122 14.111 60.3685 14.111H67.7888C68.8503 14.111 69.7033 14.964 69.7033 16.0254V23.4458C69.7033 23.6923 69.7824 23.8426 69.8693 23.9295C69.9562 24.0164 70.1065 24.0955 70.353 24.0955C70.5995 24.0955 70.7498 24.0164 70.8367 23.9295C70.9236 23.8425 71.0027 23.6923 71.0027 23.4458V16.0254Z" fill="white" stroke="white" stroke-width="0.2"/>
<path d="M70.4669 56.0402L70.4669 56.0399H70.4744H70.5127C70.7592 56.0399 70.9095 56.119 70.9964 56.2059C71.0833 56.2928 71.1624 56.4431 71.1624 56.6896V63.9747C71.1624 65.7464 69.7218 67.187 67.9501 67.187H60.5297C60.2833 67.187 60.133 67.1079 60.0461 67.021C59.9592 66.9341 59.88 66.7838 59.88 66.5373C59.88 66.2908 59.9592 66.1405 60.0461 66.0536C60.133 65.9667 60.2833 65.8876 60.5297 65.8876H67.9501C69.0116 65.8876 69.8645 65.0346 69.8645 63.9732V56.6881C69.8645 56.3296 70.1485 56.0642 70.4669 56.0402Z" fill="white" stroke="white" stroke-width="0.2"/>
<path d="M12.1731 12.8128C10.4013 12.8128 8.96073 14.2534 8.96073 16.0251L8.96073 23.4455C8.96073 23.6916 9.03975 23.8428 9.12699 23.9303C9.21391 24.0176 9.36363 24.0967 9.60893 24.0967C9.85542 24.0967 10.0057 24.0176 10.0926 23.9307C10.1795 23.8438 10.2586 23.6935 10.2586 23.447L10.2586 16.0266C10.2586 14.9652 11.1116 14.1122 12.1731 14.1122L19.5934 14.1122C19.8399 14.1122 19.9902 14.0331 20.0771 13.9462C20.164 13.8593 20.2431 13.709 20.2431 13.4625C20.2431 13.216 20.164 13.0657 20.0771 12.9788C19.9902 12.8919 19.8399 12.8128 19.5934 12.8128L12.1731 12.8128Z" fill="white" stroke="white" stroke-width="0.2"/>
<path d="M38.0392 15.802C38.0392 15.2891 37.5892 14.8871 37.0817 14.9543C33.9338 15.3744 31.0366 16.8214 28.7759 19.1332C26.0514 21.9217 24.598 25.6081 24.6865 29.5151C24.71 30.5751 24.7398 31.5924 24.775 32.5659C23.3237 32.4209 21.9375 33.6045 21.9375 35.1081V37.5841C21.9375 39.9962 23.3792 42.1459 25.5684 43.0768C26.0056 46.1948 26.5974 48.2731 27.3588 49.4173C27.7331 49.9782 28.2193 50.6361 28.7813 51.3314C28.7685 51.389 28.7621 51.4487 28.7621 51.5095V58.1613C28.7621 58.4599 28.7845 58.7542 28.8282 59.0442L24.3688 60.6054C23.9241 60.76 23.6906 61.2462 23.8452 61.692C24.0009 62.1366 24.4882 62.3744 24.9318 62.2155L29.323 60.6779C29.9798 62.0865 31.1763 63.2211 32.6937 63.7735L36.8951 65.3015C37.4517 65.5041 38.0392 65.0914 38.0392 64.4996C38.0392 64.1413 37.8153 63.8204 37.4783 63.6977L33.277 62.1697C31.5964 61.5597 30.4682 59.9474 30.4682 58.1602V53.27C32.088 55.0028 33.9562 56.6514 35.5568 57.3999C35.6688 57.4522 35.7935 57.4799 35.9183 57.4799H37.1862C37.6575 57.4799 38.0392 57.0982 38.0392 56.6268C38.0392 56.1555 37.6575 55.7738 37.1862 55.7738H36.1145C33.8933 54.637 30.5045 51.0669 28.7781 48.4715C27.4356 46.4518 26.6315 40.0602 26.3927 29.4767C26.3138 26.0325 27.5955 22.7823 29.998 20.3254C31.9846 18.293 34.5299 17.0187 37.2971 16.6465C37.7215 16.589 38.0392 16.2296 38.0392 15.8009V15.802ZM23.6436 37.5841V35.1081C23.6436 34.5813 24.0862 34.254 24.4957 34.254C24.5863 34.254 24.678 34.2689 24.7665 34.2977L24.8454 34.3243C24.9595 36.8473 25.1141 39.0493 25.3114 40.9506C24.2813 40.1625 23.6436 38.9352 23.6436 37.5841Z" fill="white" fill-opacity="0.6"/>
<path d="M55.3833 23.6758C55.0442 23.9583 54.542 23.9125 54.2594 23.5734C53.2453 22.3684 52.0936 21.2872 50.8268 20.352C47.8635 18.1447 44.3509 16.8171 40.6923 16.5057C40.2786 16.4705 39.9587 16.1293 39.9587 15.7145V15.707C39.9587 15.2399 40.3596 14.8763 40.8245 14.9158C44.7412 15.2527 48.5417 16.6646 51.7748 19.0681C53.1418 20.0779 54.3852 21.2456 55.4803 22.5454C55.4825 22.5476 55.4835 22.5497 55.4857 22.5518C55.7682 22.8909 55.7224 23.3942 55.3833 23.6758Z" fill="white" fill-opacity="0.6"/>
<path d="M56.8762 33.323C56.4944 33.5426 56.006 33.4104 55.7864 33.0287C55.4985 32.5339 55.2468 32.021 55.0314 31.491C55.0229 31.4729 55.0165 31.4537 55.0111 31.4345C53.0267 25.0172 47.2663 20.3851 40.671 19.7101C40.2658 19.6685 39.9587 19.3251 39.9587 18.9178C39.9587 18.4443 40.3682 18.0754 40.8384 18.1233C48.0469 18.8655 54.3447 23.9242 56.5264 30.9344C56.712 31.3822 56.9274 31.8162 57.1705 32.2353C57.3901 32.617 57.2579 33.1044 56.8762 33.324V33.323Z" fill="white" fill-opacity="0.6"/>
<path d="M57.1363 37.4145C56.9358 37.2012 56.7354 36.9847 56.5434 36.7704C54.5014 34.5108 53.6323 32.311 53.5086 31.9783C53.0469 30.4587 52.3474 29.0234 51.4357 27.7236C51.1861 27.36 50.6892 27.2682 50.3267 27.5167C49.963 27.7662 49.8713 28.2631 50.1198 28.6257C50.123 28.63 50.1262 28.6342 50.1294 28.6385C50.9483 29.8061 51.5764 31.0964 51.9891 32.4624C51.9934 32.4773 51.9987 32.4922 52.004 32.5061C52.1704 32.9604 53.1162 35.3554 55.3609 37.8399C55.5603 38.0607 55.7671 38.2857 55.9751 38.5064C56.2768 38.8274 56.7823 38.8434 57.1033 38.5416C57.4242 38.2398 57.4402 37.7344 57.1384 37.4134L57.1363 37.4145Z" fill="white" fill-opacity="0.6"/>
<path d="M49.2582 26.3202C48.9618 26.6455 48.4563 26.67 48.1311 26.3736C46.0272 24.4424 43.404 23.2577 40.6529 22.9176C40.2551 22.8685 39.9587 22.5273 39.9587 22.1263C39.9587 21.6486 40.3756 21.2743 40.8501 21.333C43.9223 21.7137 46.8526 23.0348 49.2039 25.1921C49.5302 25.4885 49.5547 25.9929 49.2582 26.3192V26.3202Z" fill="white" fill-opacity="0.6"/>
<path d="M43.7538 65.1191C43.4765 65.4614 42.9732 65.5137 42.632 65.2353C41.8162 64.5742 41.0154 63.896 40.2285 63.2018C40.0568 63.0504 39.9587 62.8318 39.9587 62.6026C39.9587 61.9158 40.768 61.5511 41.2841 62.0054C42.0551 62.6847 42.8399 63.349 43.6376 63.9973C43.9798 64.2746 44.0321 64.7768 43.7538 65.1191Z" fill="white" fill-opacity="0.6"/>
<path d="M56.9391 42.8293C56.6373 43.1492 56.1319 43.1642 55.812 42.8613C54.8213 41.9251 53.8723 40.9558 52.9915 39.9811C50.1849 36.8759 49.0791 33.823 48.9629 33.485C48.9586 33.4733 48.9554 33.4615 48.9511 33.4498C47.7931 29.5779 44.5269 26.7734 40.6305 26.1411C40.2434 26.0782 39.9587 25.7466 39.9587 25.3541C39.9587 24.8594 40.4044 24.4883 40.8928 24.5682C45.3768 25.2998 49.1356 28.5254 50.476 32.9795C50.6082 33.3581 51.6212 36.0858 54.1751 38.9105C55.0282 39.8553 55.9485 40.7937 56.9082 41.7011C57.2281 42.004 57.2419 42.5094 56.9391 42.8293Z" fill="white" fill-opacity="0.6"/>
<path d="M47.3068 63.8501C47.0328 64.1956 46.5305 64.2532 46.185 63.9791C44.1014 62.3764 42.1052 60.6649 40.205 58.8522C40.0472 58.7018 39.9587 58.4928 39.9587 58.2742C39.9587 57.5715 40.8 57.2132 41.3087 57.6984C43.1673 59.4717 45.1176 61.1448 47.1554 62.7123C47.1629 62.7176 47.1703 62.723 47.1778 62.7294C47.5222 63.0034 47.5798 63.5046 47.3068 63.8501Z" fill="white" fill-opacity="0.6"/>
<path d="M56.9945 46.0593C55.1562 44.5067 53.4234 42.8325 51.8079 41.0496C51.2342 40.4141 50.6946 39.7476 50.1934 39.0545C49.9343 38.6983 49.4353 38.6194 49.0791 38.8796C48.7251 39.1377 48.6451 39.6335 48.901 39.9897C49.4363 40.7308 50.0121 41.442 50.6253 42.1202C52.2888 43.9565 54.0728 45.6797 55.9655 47.2781C56.3035 47.5607 56.8069 47.517 57.0894 47.1789C57.3699 46.843 57.3283 46.344 56.9967 46.0604L56.9945 46.0593Z" fill="white" fill-opacity="0.6"/>
<path d="M43.9735 56.9243C43.6717 57.2453 43.1662 57.2613 42.8453 56.9595C41.9357 56.1053 41.0442 55.2235 40.1826 54.3235C40.0387 54.1731 39.9587 53.9716 39.9587 53.7626C39.9587 53.0343 40.8459 52.676 41.3513 53.1996C42.1884 54.0676 43.2249 55.1264 43.9372 55.7961C44.2592 56.0979 44.2742 56.6033 43.9735 56.9243Z" fill="white" fill-opacity="0.6"/>
<path d="M48.2271 37.5201C47.8389 37.7281 47.3548 37.582 47.1458 37.1938C46.3322 35.6775 45.9739 34.6186 45.9099 34.4214C45.9078 34.4139 45.9057 34.4054 45.9025 34.3968C45.155 31.7939 43.0607 29.9374 40.5889 29.3754C40.2221 29.2923 39.9587 28.9702 39.9587 28.5938C39.9587 28.0841 40.4311 27.6992 40.928 27.8111C43.9415 28.4925 46.5017 30.7468 47.4263 33.9202C47.4305 33.934 47.4348 33.949 47.4401 33.9628C47.743 34.817 48.1141 35.6445 48.5523 36.4378C48.7613 36.827 48.6152 37.3101 48.2271 37.5191V37.5201Z" fill="white" fill-opacity="0.6"/>
<path d="M50.0633 60.9071C48.8274 60.0018 47.5702 59.0015 46.3236 57.9352C45.9845 57.6537 45.4823 57.6995 45.1997 58.0376C44.9235 58.3703 44.9619 58.8618 45.2861 59.1476C46.5625 60.2396 47.8527 61.2654 49.1196 62.1942C49.4768 62.4533 49.9748 62.3733 50.2339 62.0161C50.4909 61.6621 50.4141 61.1673 50.0633 60.9071Z" fill="white" fill-opacity="0.6"/>
<path d="M56.8239 51.038C56.5531 51.3857 56.0519 51.4486 55.7043 51.1788C53.0256 49.092 50.5336 46.778 48.2548 44.2604C44.2336 39.8105 42.9007 35.4983 42.8463 35.317C42.8463 35.3127 42.8431 35.3074 42.8421 35.3021C42.4912 34.048 41.5795 33.1022 40.4535 32.6597C40.1592 32.5434 39.9587 32.2672 39.9587 31.9505V31.862C39.9587 31.3331 40.4887 30.9674 40.9834 31.1551C42.5797 31.7629 43.8775 33.0915 44.3765 34.8627C44.4501 35.1058 45.6945 39.047 49.4395 43.1908C51.6543 45.6381 54.0781 47.8891 56.6821 49.9184C57.0308 50.1882 57.0937 50.6893 56.8239 51.038Z" fill="white" fill-opacity="0.6"/>
<path d="M52.6449 59.8172C52.3901 60.1755 51.891 60.2598 51.5327 60.0039C49.4832 58.5451 45.4098 55.393 41.1508 50.6808C40.8075 50.3023 40.4705 49.9163 40.1432 49.5239C40.0237 49.381 39.9587 49.1997 39.9587 49.0131C39.9587 48.2688 40.8885 47.9286 41.3662 48.4991C41.6808 48.8755 42.0039 49.2466 42.3345 49.6102C46.4921 54.2104 50.4621 57.2815 52.4583 58.7029C52.8166 58.9588 52.9009 59.4568 52.6449 59.8162V59.8172Z" fill="white" fill-opacity="0.6"/>
<path d="M48.5107 47.2462C48.3508 48.0182 47.5372 48.1632 47.1149 47.7186C46.698 47.2846 46.2853 46.841 45.8875 46.4006C42.7173 42.8934 41.0421 39.4694 40.2871 37.6086C40.0696 37.0733 39.9587 36.5017 39.9587 35.9249C39.9587 35.1336 41.0879 34.9662 41.3033 35.7265C41.3055 35.734 41.3076 35.7414 41.3097 35.7478C41.3215 35.7894 42.6821 40.4739 47.0712 45.331C47.4583 45.7597 47.8603 46.1905 48.2665 46.6139C48.2697 46.616 48.2719 46.6192 48.2751 46.6224C48.4446 46.7909 48.5587 47.0127 48.5107 47.2462Z" fill="white" fill-opacity="0.6"/>
<path d="M54.5729 57.2804C54.3148 57.6377 53.8158 57.7187 53.4586 57.4606C51.5135 56.0851 47.6363 53.0972 43.5192 48.5418C42.1265 47.0009 40.9962 45.4782 40.0845 44.0695C40.0013 43.9416 39.9587 43.7912 39.9587 43.6387C39.9587 42.8454 40.9909 42.5393 41.4228 43.2058C42.2897 44.5441 43.3699 45.9954 44.7028 47.4712C48.7176 51.9125 52.4892 54.8204 54.3799 56.1576C54.3841 56.1608 54.3884 56.164 54.3927 56.1672C54.7499 56.4252 54.8309 56.9232 54.5729 57.2804Z" fill="white" fill-opacity="0.6"/>
<path d="M55.8322 53.2763C55.3758 52.9447 54.897 52.5811 54.4097 52.1961C53.112 51.1735 51.811 50.0517 50.5421 48.8617C50.2233 48.5577 49.7178 48.5695 49.4139 48.8883C49.11 49.2072 49.1217 49.7126 49.4406 50.0165C49.4438 50.0197 49.447 50.0229 49.4502 50.025C50.7522 51.246 52.0883 52.3976 53.4212 53.4491C53.9256 53.8468 54.4204 54.2222 54.8928 54.5666C55.2468 54.8289 55.7469 54.7553 56.0092 54.4013C56.2715 54.0473 56.198 53.5472 55.8439 53.2848C55.8397 53.2816 55.8354 53.2784 55.8322 53.2763Z" fill="white" fill-opacity="0.6"/>
<path d="M2.9375 46.9128H76.8134" stroke="white" stroke-width="1.5" stroke-miterlimit="10" stroke-linecap="round"/>
</svg>
