<svg width="181" height="180" viewBox="0 0 181 180" fill="none" xmlns="http://www.w3.org/2000/svg">
<path fill-rule="evenodd" clip-rule="evenodd" d="M133.356 113.427C131.163 98.7579 118.322 86.8038 101.373 82.8626L99.7946 85.7604C97.3639 85.3922 94.9311 85.0647 92.4065 84.9369C88.701 84.7494 85.0198 84.8899 81.489 85.2831L80.1872 82.2218C76.6248 82.8191 73.2215 83.7636 70.0326 85.0083C66.6452 80.0205 60.3409 77.5737 54.3659 79.4559L58.2238 91.7371C50.6962 97.713 45.7092 105.9 44.8624 114.982C42.8864 116.723 40.2047 118.746 37.1937 119.876C36.1587 120.252 35.5 121.287 35.5 122.416C35.5941 125.993 36.488 133.568 42.463 139.027C43.1216 139.638 44.1096 139.874 45.0035 139.732C46.6502 139.45 49.3789 138.791 51.5901 137.333C54.4129 140.956 57.9415 144.156 62.0816 146.744L65.7042 159.966H82.1707L83.1117 153.943C85.0877 154.178 87.1577 154.272 89.2278 154.272C91.392 154.272 93.5561 154.131 95.6262 153.896L96.5671 159.966H113.034L116.703 146.508C127.054 139.874 133.687 129.522 133.687 117.899C133.687 117.18 133.662 116.466 133.612 115.757C133.92 115.785 134.24 115.801 134.565 115.801C135.643 115.801 136.82 115.611 137.948 115.138C139.321 114.523 140.448 113.482 141.037 112.252C143.635 111.306 144.91 108.089 145.45 106.244C145.646 105.582 145.253 104.919 144.567 104.777C143.979 104.683 143.341 105.014 143.194 105.582C142.802 106.906 142.214 108.231 141.429 109.13C141.135 107.853 140.252 106.433 139.076 105.724C138.095 105.156 137.016 105.156 136.085 105.676C135.447 106.055 134.957 106.67 134.663 107.427C134.173 108.799 134.418 110.123 135.398 111.117C136.036 111.779 136.918 112.205 137.899 112.442C137.605 112.678 137.261 112.915 136.918 113.057C135.916 113.482 134.683 113.623 133.356 113.427ZM137.114 109.556C137.556 109.982 138.389 110.265 139.174 110.265V110.218C139.223 109.603 138.585 108.184 137.801 107.711C137.703 107.616 137.605 107.616 137.507 107.616C137.409 107.616 137.359 107.616 137.261 107.711C137.114 107.758 137.016 107.947 136.918 108.184C136.624 108.941 136.869 109.319 137.114 109.556Z" fill="white" fill-opacity="0.25"/>
<path fill-rule="evenodd" clip-rule="evenodd" d="M81.5992 85.2716C85.0963 84.8876 88.7395 84.752 92.4064 84.9376C94.7665 85.0571 97.0465 85.351 99.3195 85.6897C99.6289 84.7685 99.7969 83.7827 99.7978 82.758C99.8021 77.6516 95.6546 73.512 90.5341 73.512C85.4136 73.512 81.259 77.6516 81.2547 82.758C81.2539 83.6293 81.374 84.4724 81.5992 85.2716Z" fill="white" fill-opacity="0.2"/>
<path d="M99.3494 85.6947C99.6503 84.7795 99.8129 83.8021 99.8129 82.7878C99.8129 77.6735 95.6422 73.4994 90.5322 73.4994C85.4222 73.4994 81.2515 77.6735 81.2515 82.7878C81.2515 83.648 81.3695 84.4816 81.5901 85.2733C82.1124 85.2158 82.638 85.164 83.1664 85.1179C82.9235 84.3703 82.792 83.5744 82.792 82.7502C82.792 78.5008 86.2488 75.0036 90.5322 75.0036C94.8156 75.0036 98.2724 78.5008 98.2724 82.7502C98.2724 83.7049 98.0979 84.6217 97.7787 85.4693C98.3032 85.5411 98.8265 85.6167 99.3494 85.6947Z" fill="white" fill-opacity="0.1"/>
<path d="M92.7329 76.8644C95.9801 78.0826 97.6257 81.7046 96.4085 84.9544C96.3677 85.0634 96.3242 85.1706 96.278 85.276C95.0039 85.1242 93.7175 85.004 92.4064 84.9376C89.8003 84.8057 87.2061 84.8361 84.6678 85.0025C84.1358 83.6182 84.0886 82.0411 84.6496 80.543C85.8668 77.2932 89.4858 75.6462 92.7329 76.8644Z" fill="white" fill-opacity="0.2"/>
<path opacity="0.2" d="M120.461 102.583C121.988 99.6279 118.023 94.5441 111.606 91.2281C105.188 87.912 98.7486 87.6195 97.2221 90.5746C95.6955 93.5298 99.6602 98.6136 106.077 101.93C112.495 105.246 118.934 105.538 120.461 102.583Z" fill="white" fill-opacity="0.4"/>
<path d="M55.5891 112.96C57.0181 112.96 58.1766 111.802 58.1766 110.372C58.1766 108.943 57.0181 107.784 55.5891 107.784C54.16 107.784 53.0015 108.943 53.0015 110.372C53.0015 111.802 54.16 112.96 55.5891 112.96Z" fill="white" fill-opacity="0.4"/>
<g opacity="0.4">
<path d="M89.2563 33.6743C94.4056 33.6743 98.5855 29.4987 98.5923 24.3478C98.5991 19.197 94.4302 15.0214 89.2809 15.0214C84.1315 15.0214 79.9516 19.197 79.9448 24.3478C79.938 29.4987 84.1069 33.6743 89.2563 33.6743Z" fill="white" fill-opacity="0.2"/>
<path d="M89.2689 33.6986C84.1358 33.6986 79.9462 29.5055 79.9462 24.3682C79.9462 19.2308 84.1358 15 89.2689 15C94.402 15 98.5916 19.193 98.5916 24.3304C98.5916 29.4678 94.4398 33.6986 89.2689 33.6986ZM89.2689 16.5488C84.9661 16.5488 81.4937 20.0618 81.4937 24.3304C81.4937 28.599 85.0039 32.112 89.2689 32.112C93.5717 32.112 97.0441 28.599 97.0441 24.3304C97.0441 20.0618 93.5717 16.5488 89.2689 16.5488Z" fill="white" fill-opacity="0.1"/>
<path d="M95.2334 26.3125C96.3161 23.0155 94.5231 19.4644 91.2288 18.3809C87.9345 17.2974 84.3864 19.0918 83.3037 22.3888C82.2211 25.6858 84.0141 29.2369 87.3084 30.3204C90.6027 31.4039 94.1508 29.6095 95.2334 26.3125Z" fill="white" fill-opacity="0.2"/>
</g>
<g opacity="0.6">
<path d="M104.499 56.0465C109.612 56.0465 113.762 51.9007 113.769 46.7867C113.775 41.6726 109.636 37.5269 104.524 37.5269C99.411 37.5269 95.261 41.6726 95.2543 46.7867C95.2475 51.9007 99.3866 56.0465 104.499 56.0465Z" fill="white" fill-opacity="0.2"/>
<path d="M110.788 46.9622C110.886 43.493 108.155 40.6013 104.689 40.5034C101.223 40.4056 98.3335 43.1385 98.2356 46.6077C98.1378 50.0769 100.869 52.9685 104.335 53.0664C107.801 53.1643 110.69 50.4313 110.788 46.9622Z" fill="white" fill-opacity="0.2"/>
<path d="M104.512 56.0468C99.4164 56.0468 95.2578 51.8847 95.2578 46.7852C95.2578 41.6857 99.4164 37.5236 104.512 37.5236C109.607 37.5236 113.766 41.6857 113.766 46.7852C113.766 51.8847 109.644 56.0468 104.512 56.0468ZM104.512 39.0234C100.241 39.0234 96.7939 42.5106 96.7939 46.7477C96.7939 50.9848 100.278 54.4719 104.512 54.4719C108.783 54.4719 112.23 50.9848 112.23 46.7477C112.23 42.5106 108.783 39.0234 104.512 39.0234Z" fill="white" fill-opacity="0.1"/>
</g>
<g opacity="0.8">
<path d="M82.9463 68.0269C88.0883 68.0269 92.2567 63.855 92.2567 58.7088C92.2567 53.5625 88.0883 49.3907 82.9463 49.3907C77.8043 49.3907 73.6359 53.5625 73.6359 58.7088C73.6359 63.855 77.8043 68.0269 82.9463 68.0269Z" fill="white" fill-opacity="0.2"/>
<path d="M83.0014 68.0388C77.8599 68.0388 73.6635 63.839 73.6635 58.6932C73.6635 53.5475 77.8599 49.3477 83.0014 49.3477C88.1428 49.3477 92.3392 53.5475 92.3392 58.6932C92.3392 63.839 88.1428 68.0388 83.0014 68.0388ZM83.0014 50.8612C78.6916 50.8612 75.2135 54.3799 75.2135 58.6554C75.2135 62.9687 78.7294 66.4497 83.0014 66.4497C87.3111 66.4497 90.7892 62.9309 90.7892 58.6554C90.7892 54.3421 87.2733 50.8612 83.0014 50.8612Z" fill="white" fill-opacity="0.1"/>
<path d="M82.9861 64.9286C86.4545 64.9286 89.27 62.1161 89.2746 58.6466C89.2792 55.1772 86.4712 52.3647 83.0028 52.3647C79.5343 52.3647 76.7189 55.1772 76.7143 58.6466C76.7096 62.1161 79.5176 64.9286 82.9861 64.9286Z" fill="white" fill-opacity="0.2"/>
</g>
</svg>
