<svg width="400" height="400" viewBox="0 0 400 400" fill="none" xmlns="http://www.w3.org/2000/svg">
<path opacity="0.25" d="M225 182.429L215 192.429L205 182.429L215 172.429L225 182.429ZM175 182.429L185 192.429L195 182.429L185 172.429L175 182.429ZM260 190V205L252.5 212.5H247.5V236.25L223.75 260H176.25L152.5 236.25V212.5H147.5L140 205V190L147.5 182.5H152.5V163.75L176.25 140H223.75L247.5 163.75V182.5H252.5L260 190ZM223.75 232.5H176.25L188.75 245H211.25L223.75 232.5ZM232.5 213.75L222.5 203.75L232.5 193.75V170L217.5 155H209.929L200 164.929L190.071 155H182.5L167.5 170V193.75L177.5 203.75L167.5 213.75V220H232.5V213.75Z" fill="#02050A"/>
</svg>
