<?xml version="1.0" encoding="UTF-8"?>
<svg id="Layer_1" data-name="Layer 1" xmlns="http://www.w3.org/2000/svg" width="110.1515" height="144.7" viewBox="0 0 110.1515 144.7">
  <path d="M98,98.4c-2.2-14.7-15-26.6-32-30.6l-1.6,2.9c-2.4-.4-4.9-.7-7.4-.8-3.7-.2-7.4,0-10.9.3l-1.3-3.1c-3.6.6-7,1.5-10.2,2.8-3.4-5-9.7-7.4-15.7-5.6l3.9,12.3c-7.5,6-12.5,14.2-13.4,23.2-2,1.7-4.7,3.8-7.7,4.9-1,.4-1.7,1.4-1.7,2.5,0,3.6,1,11.2,7,16.6.7.6,1.6.8,2.5.7,1.6-.3,4.4-.9,6.6-2.4,2.8,3.6,6.4,6.8,10.5,9.4l3.6,13.2h16.5l.9-6c2,.2,4,.3,6.1.3s4.3-.1,6.4-.4l.9,6.1h16.5l3.7-13.5c10.4-6.6,17-17,17-28.6s0-1.4,0-2.1h1c1.1,0,2.3-.2,3.4-.7,1.4-.6,2.5-1.7,3.1-2.9,2.6-.9,3.9-4.2,4.4-6,.2-.7-.2-1.3-.9-1.5-.6,0-1.2.2-1.4.8-.4,1.3-1,2.6-1.8,3.5-.3-1.3-1.2-2.7-2.4-3.4-1-.6-2.1-.6-3,0-.6.4-1.1,1-1.4,1.8-.5,1.4-.2,2.7.7,3.7.6.7,1.5,1.1,2.5,1.3-.3.2-.6.5-1,.6-1,.4-2.2.6-3.6.4l.2.3h0ZM101.7,94.6c.4.4,1.3.7,2.1.7h0c0-.7-.6-2.1-1.4-2.6h-.5c-.1,0-.2.2-.3.5-.3.8,0,1.1.2,1.4,0,0-.1,0-.1,0Z" fill="#c1c1c1" fill-rule="evenodd"/>
  <path d="M46.2,70.3c3.5-.4,7.1-.5,10.8-.3,2.4.1,4.6.4,6.9.8.3-.9.5-1.9.5-2.9,0-5.1-4.1-9.2-9.3-9.2s-9.3,4.1-9.3,9.2c0,.9.1,1.7.3,2.5l.1-.1Z" fill="#d8d8d8" fill-rule="evenodd"/>
  <path d="M63.9,70.7c.3-.9.5-1.9.5-2.9,0-5.1-4.2-9.3-9.3-9.3s-9.3,4.2-9.3,9.3.1,1.7.3,2.5c.5,0,1-.1,1.6-.2-.2-.7-.4-1.5-.4-2.4,0-4.2,3.5-7.7,7.7-7.7s7.7,3.5,7.7,7.7-.2,1.9-.5,2.7c.5,0,1,.1,1.6.2,0,0,.1.1.1.1Z" fill="#949494"/>
  <path d="M57.3,61.9c3.2,1.2,4.9,4.8,3.7,8.1,0,.1,0,.2-.1.3-1.3-.2-2.6-.3-3.9-.3-2.6-.1-5.2-.1-7.7,0-.5-1.4-.6-3,0-4.5,1.2-3.2,4.8-4.9,8.1-3.7l-.1.1Z" fill="#d8d8d8"/>
  <path d="M85.1,87.6c1.5-3-2.4-8-8.9-11.4-6.4-3.3-12.9-3.6-14.4-.7-1.5,3,2.4,8,8.9,11.4,6.4,3.3,12.9,3.6,14.4.7Z" fill="#050505" isolation="isolate" opacity=".2"/>
  <path d="M20.2,98c1.4,0,2.6-1.2,2.6-2.6s-1.2-2.6-2.6-2.6-2.6,1.2-2.6,2.6,1.2,2.6,2.6,2.6Z" fill="#050505"/>
  <g opacity=".4">
    <path d="M53.9,18.7c5.1,0,9.3-4.2,9.3-9.3C63.2,4.2,59,.1,53.9.1s-9.3,4.2-9.3,9.3c0,5.2,4.2,9.3,9.3,9.3Z" fill="#7c7c7c"/>
    <path d="M53.9,18.7c-5.1,0-9.3-4.2-9.3-9.3S48.8,0,53.9,0s9.3,4.2,9.3,9.3-4.2,9.4-9.3,9.4ZM53.9,1.5c-4.3,0-7.8,3.5-7.8,7.8s3.5,7.8,7.8,7.8,7.8-3.5,7.8-7.8-3.5-7.8-7.8-7.8Z" fill="#525252"/>
    <path d="M59.8,11.3c1.1-3.3-.7-6.8-4-7.9s-6.8.7-7.9,4c-1.1,3.3.7,6.8,4,7.9s6.8-.7,7.9-4Z" fill="#7c7c7c"/>
  </g>
  <g opacity=".6">
    <path d="M69.1,41c5.1,0,9.3-4.1,9.3-9.3,0-5.1-4.1-9.3-9.2-9.3s-9.3,4.1-9.3,9.3c0,5.1,4.1,9.3,9.2,9.3Z" fill="#7c7c7c"/>
    <path d="M75.4,32c0-3.5-2.6-6.4-6.1-6.5-3.5,0-6.4,2.6-6.5,6.1,0,3.5,2.6,6.4,6.1,6.5,3.5,0,6.4-2.6,6.5-6.1Z" fill="#7c7c7c"/>
    <path d="M69.1,41c-5.1,0-9.3-4.2-9.3-9.3s4.2-9.3,9.3-9.3,9.3,4.2,9.3,9.3-4.1,9.3-9.3,9.3ZM69.1,24c-4.3,0-7.7,3.5-7.7,7.7s3.5,7.7,7.7,7.7,7.7-3.5,7.7-7.7-3.4-7.7-7.7-7.7Z" fill="#525252"/>
  </g>
  <g opacity=".8">
    <path d="M47.5,53c5.1,0,9.3-4.2,9.3-9.3s-4.2-9.3-9.3-9.3-9.3,4.2-9.3,9.3,4.2,9.3,9.3,9.3Z" fill="#7c7c7c"/>
    <path d="M47.6,53c-5.1,0-9.3-4.2-9.3-9.3s4.2-9.3,9.3-9.3,9.3,4.2,9.3,9.3-4.2,9.3-9.3,9.3ZM47.6,35.9c-4.3,0-7.8,3.5-7.8,7.8s3.5,7.8,7.8,7.8,7.8-3.5,7.8-7.8-3.5-7.8-7.8-7.8Z" fill="#525252"/>
    <path d="M47.6,49.9c3.5,0,6.3-2.8,6.3-6.3s-2.8-6.3-6.3-6.3-6.3,2.8-6.3,6.3,2.8,6.3,6.3,6.3Z" fill="#7c7c7c"/>
  </g>
</svg>