<?xml version="1.0" encoding="UTF-8"?>
<svg id="Layer_1" data-name="Layer 1" xmlns="http://www.w3.org/2000/svg" width="140.0042" height="135.3521" viewBox="0 0 140.0042 135.3521">
  <path d="M89.0871,61.6471c-12.83,0-23.23,10.4-23.23,23.23s10.4,23.23,23.23,23.23,23.23-10.4,23.23-23.23-10.4-23.23-23.23-23.23ZM60.7571,84.8771c0-15.65,12.68-28.33,28.33-28.33s28.33,12.68,28.33,28.33c0,7.69-3.07,14.67-8.04,19.78l4.49,4.49c1.05-.28,2.23-.01,3.05.81l20.03,20.03c1.22,1.22,1.22,3.23,0,4.45s-3.23,1.22-4.45,0l-20.03-20.03c-.83-.82-1.1-1.98-.82-3.03l-4.59-4.59c-4.89,4.01-11.14,6.42-17.96,6.42-15.65,0-28.33-12.68-28.33-28.33h-.01Z" fill="rgba(128, 128, 128, .25)" fill-rule="evenodd"/>
  <path d="M10.5471,28.2871C2.9571,30.3171-1.5429,38.1171.4871,45.7071l7.74,28.88c2.03,7.59,9.83,12.09,17.42,10.06l36.97-9.9c4.08-10.64,14.39-18.2,26.47-18.2,6.77,0,12.98,2.37,17.85,6.33l22.52-6.03c7.59-2.03,12.09-9.83,10.06-17.42l-7.74-28.88c-2.03-7.59-9.84-12.09-17.42-10.06L10.5571,28.2971l-.01-.01ZM100.4571,64.6171c-3.36-1.89-7.24-2.97-11.37-2.97-8.5,0-15.92,4.56-19.98,11.36l31.34-8.4.01.01Z" fill="rgba(128, 128, 128, .15)" fill-rule="evenodd"/>
  <path d="M51.3571,48.5771c2.55,9.53-3.11,19.25-12.58,21.78-9.53,2.55-19.23-3.05-21.78-12.58-2.54-9.46,3.05-19.23,12.57-21.78,9.46-2.54,19.25,3.11,21.78,12.57l.01.01Z" fill="rgba(128, 128, 128, .1)"/>
  <path d="M66.0771,52.0171c-.37-1.37.45-2.79,1.82-3.15l30.37-8.14c1.37-.37,2.79.45,3.15,1.82.37,1.37-.45,2.79-1.82,3.15l-30.37,8.14c-1.37.37-2.79-.45-3.15-1.82h0Z" fill="rgba(128, 128, 128, .1)" fill-rule="evenodd"/>
  <path d="M62.5371,38.8071c-.37-1.37.45-2.79,1.82-3.15l53.44-14.32c1.37-.37,2.79.45,3.15,1.82.37,1.37-.45,2.79-1.82,3.15l-53.44,14.32c-1.37.37-2.79-.45-3.15-1.82h0Z" fill="rgba(128, 128, 128, .1)" fill-rule="evenodd"/>
</svg>