<svg width="362" height="204" viewBox="0 0 362 204" fill="none" xmlns="http://www.w3.org/2000/svg">
<path d="M0 8C0 3.58173 3.58172 0 8 0H354C358.418 0 362 3.58172 362 8V195.625C362 200.043 358.418 203.625 354 203.625H8C3.58172 203.625 0 200.043 0 195.625V8Z" fill="#111419"/>
<path d="M181 102H181V102H181V102Z" fill="#D9D9D9"/>
<path d="M170.241 109.407H173.019V108.944C173.019 106.753 173.775 104.901 175.287 103.389C176.83 101.845 178.698 101.074 180.889 101.074C183.08 101.074 184.932 101.845 186.444 103.389C187.988 104.901 188.759 106.753 188.759 108.944V109.407H191.537V108.944C191.537 105.981 190.503 103.466 188.435 101.398C186.367 99.3298 183.852 98.2959 180.889 98.2959C177.926 98.2959 175.411 99.3298 173.343 101.398C171.275 103.466 170.241 105.981 170.241 108.944V109.407ZM171.815 96.907C173.08 96.7218 174.407 96.228 175.796 95.4255C177.216 94.623 178.343 93.7126 179.176 92.694L177.046 90.9348C176.429 91.6755 175.565 92.3545 174.454 92.9718C173.373 93.5891 172.37 93.9749 171.444 94.1292L171.815 96.907ZM189.963 96.907L190.333 94.1292C189.407 93.9749 188.389 93.5891 187.278 92.9718C186.198 92.3545 185.349 91.6755 184.731 90.9348L182.602 92.694C183.435 93.7126 184.546 94.623 185.935 95.4255C187.355 96.228 188.698 96.7218 189.963 96.907ZM180.889 120.518C178.327 120.518 175.92 120.04 173.667 119.083C171.414 118.095 169.454 116.768 167.787 115.101C166.12 113.435 164.793 111.475 163.806 109.222C162.849 106.969 162.37 104.561 162.37 102C162.37 99.4378 162.849 97.0304 163.806 94.7774C164.793 92.5243 166.12 90.5644 167.787 88.8978C169.454 87.2311 171.414 85.9194 173.667 84.9626C175.92 83.9749 178.327 83.4811 180.889 83.4811C183.451 83.4811 185.858 83.9749 188.111 84.9626C190.364 85.9194 192.324 87.2311 193.991 88.8978C195.657 90.5644 196.969 92.5243 197.926 94.7774C198.914 97.0304 199.407 99.4378 199.407 102C199.407 104.561 198.914 106.969 197.926 109.222C196.969 111.475 195.657 113.435 193.991 115.101C192.324 116.768 190.364 118.095 188.111 119.083C185.858 120.04 183.451 120.518 180.889 120.518Z" fill="#F5F8FF" fill-opacity="0.4"/>
</svg>
