<svg width="24" height="24" viewBox="0 0 24 24" fill="none" xmlns="http://www.w3.org/2000/svg">
    <mask id="mask0_442_19349" style="mask-type:alpha" maskUnits="userSpaceOnUse" x="0" y="0"
        width="24" height="24">
        <rect width="24" height="24" fill="#D9D9D9" />
    </mask>
    <g mask="url(#mask0_442_19349)">
        <path
            d="M4.1155 21.4998V10.615H2.5V5.40379H7.67125C7.53025 5.24096 7.43442 5.05754 7.38375 4.85354C7.33308 4.64971 7.30775 4.43563 7.30775 4.21129C7.30775 3.46346 7.5695 2.82779 8.093 2.30429C8.6165 1.78079 9.25217 1.51904 10 1.51904C10.3833 1.51904 10.7385 1.59946 11.0655 1.76029C11.3923 1.92129 11.6846 2.13638 11.9423 2.40554C12.1999 2.12604 12.4923 1.90846 12.8193 1.75279C13.1461 1.59696 13.5012 1.51904 13.8845 1.51904C14.6325 1.51904 15.2682 1.78079 15.7917 2.30429C16.3153 2.82779 16.577 3.46346 16.577 4.21129C16.577 4.43313 16.5491 4.64404 16.4932 4.84404C16.4374 5.04404 16.3442 5.23063 16.2135 5.40379H21.5V10.615H19.8845V21.4998H4.1155ZM13.8845 3.01904C13.5467 3.01904 13.2635 3.13329 13.035 3.36179C12.8065 3.59029 12.6923 3.87346 12.6923 4.21129C12.6923 4.54913 12.8065 4.83229 13.035 5.06079C13.2635 5.28946 13.5467 5.40379 13.8845 5.40379C14.2223 5.40379 14.5056 5.28946 14.7343 5.06079C14.9628 4.83229 15.077 4.54913 15.077 4.21129C15.077 3.87346 14.9628 3.59029 14.7343 3.36179C14.5056 3.13329 14.2223 3.01904 13.8845 3.01904ZM8.80775 4.21129C8.80775 4.54913 8.922 4.83229 9.1505 5.06079C9.379 5.28946 9.66217 5.40379 10 5.40379C10.3378 5.40379 10.621 5.28946 10.8495 5.06079C11.078 4.83229 11.1923 4.54913 11.1923 4.21129C11.1923 3.87346 11.078 3.59029 10.8495 3.36179C10.621 3.13329 10.3378 3.01904 10 3.01904C9.66217 3.01904 9.379 3.13329 9.1505 3.36179C8.922 3.59029 8.80775 3.87346 8.80775 4.21129ZM4 6.90354V9.11529H11.25V6.90354H4ZM11.25 19.9998V10.615H5.61525V19.9998H11.25ZM12.75 19.9998H18.3848V10.615H12.75V19.9998ZM20 9.11529V6.90354H12.75V9.11529H20Z"
            fill="#FFEF46" />
    </g>
</svg>
