<svg width="64" height="64" viewBox="0 0 64 64" fill="none" xmlns="http://www.w3.org/2000/svg">
<path d="M21 17.5H26.5V12H37.5V17.5H43V12H54V45L32 56L10 45V12H21V17.5ZM18.127 23.749L15.5947 26.2812V41.8818L18.0039 44.291H45.6006L48.0713 41.8203V26.3447L45.4756 23.749H18.127ZM25.9639 35.5518V37.2734L25.083 38.1338H19.8008L18.9209 37.2734V35.5518H25.9639ZM25.9629 33.4111V34.8203H23.6152V33.4111H25.9629ZM21.2686 33.4092V34.8184H18.9209V33.4092H21.2686ZM25.084 30.0947L25.9639 30.9551V32.6768H18.9209V30.9551L19.8018 30.0947H25.084Z" fill="#F5F8FF"/>
</svg>
