<svg width="370" height="209" viewBox="0 0 370 209" fill="none" xmlns="http://www.w3.org/2000/svg">
<path d="M265 82.3252V118.551H224.971L207.391 136.131V179H106.31L99 171.69V81.9521L106.952 74H256.675L265 82.3252ZM112 138.333L115.75 142H138.25L142 138.333V131H112V138.333ZM132 130.002H142V124.002H132V130.002ZM112 130H122V124H112V130ZM112 115.667V123H142V115.667L138.25 112H115.75L112 115.667Z" fill="#F5F8FF"/>
<path d="M285.647 133L294.763 142.115V196.808L285.647 205.923H230.955L221.84 196.808V142.115L230.955 133H285.647ZM245.176 162.552L240.801 166.927V187.452H275.802V166.927L271.427 162.552H245.176ZM258.3 147.978C253.078 147.978 248.844 152.211 248.844 157.434V161.188H255.474V157.434C255.474 155.873 256.739 154.608 258.3 154.607C259.861 154.607 261.126 155.873 261.126 157.434V161.188H267.756V157.434C267.756 152.211 263.522 147.978 258.3 147.978Z" fill="#F5F8FF"/>
</svg>
