<svg width="28" height="28" viewBox="0 0 28 28" fill="none" xmlns="http://www.w3.org/2000/svg">
    <path
        d="M22.7902 9.29563V8.61275L24.2554 7.75915L25.0695 6.22267H25.7207L26.5347 7.75915L28 8.61275V9.29563L26.5347 10.1492L25.7207 11.6857H25.0695L24.2554 10.1492L22.7902 9.29563Z"
        fill="#FFEF46" />
    <path
        d="M21.7099 15.9254L22.0847 15.793L23.9543 11.5273L24.186 11.935L22.2069 18.8424L20.9289 19.2945L17.7216 11.4328L17.3352 11.5692L12.0244 20.1407L10.5835 20.6507L8.05321 14.6518L7.45579 14.8631L0.950168 24.7146L0 25L7.23257 9.22797L9.15056 8.54922L10.9108 12.8699L11.7825 12.5614L16.7902 4.50727L18.2248 4L21.7099 15.9254Z"
        fill="#FFEF46" />
</svg>
