<svg width="370" height="209" viewBox="0 0 370 209" fill="none" xmlns="http://www.w3.org/2000/svg">
<rect x="191.797" y="109.25" width="16.3845" height="6.4889" rx="3.24445" fill="#F5F8FF"/>
<rect x="236.922" y="127.99" width="12.165" height="6.4889" rx="3.24445" fill="#F5F8FF"/>
<rect x="214.703" y="118.648" width="14.6331" height="6.44018" rx="3.22009" fill="#F5F8FF"/>
<rect x="214.703" y="109.213" width="11.0831" height="6.58995" rx="3.29497" fill="#F5F8FF"/>
<rect x="214.703" y="127.936" width="11.0831" height="6.58995" rx="3.29497" fill="#F5F8FF"/>
<rect x="236.922" y="118.584" width="9.83842" height="6.57001" rx="3.285" fill="#F5F8FF"/>
<rect x="236.922" y="137.32" width="13.912" height="6.57001" rx="3.285" fill="#F5F8FF"/>
<rect x="236.922" y="109.25" width="13.912" height="6.4889" rx="3.24445" fill="#F5F8FF"/>
<rect x="214.703" y="137.32" width="17.7452" height="6.57001" rx="3.285" fill="#F5F8FF"/>
<path d="M276.597 157.661L221.313 185.303L166.031 157.661V144.717H183.439V146.901L221.313 165.839L259.188 146.901V90.0898H240.251V99.5586H230.782V90.0898H211.845V99.5586H202.377V90.0898H183.439V115.754H166.031V72.6816H276.597V157.661Z" fill="#F5F8FF"/>
<path d="M210.773 135.165V153.771L193.366 145.014V142.375L189.531 138.54H120.437L116.774 142.202V183.604L120.155 186.986H189.812L193.366 183.434V177.436L210.773 186.192V190.644L197.022 204.394H112.943L99.3672 190.814V134.992L113.227 121.133H196.741L210.773 135.165ZM145.946 170.821L143.355 173.355H127.807L125.216 170.821V166.943H145.946V170.821ZM132.126 165.062H125.216V160.916H132.126V165.062ZM145.948 165.062H139.038V160.916H145.948V165.062ZM145.946 155.156V158.895H125.216V155.156L127.808 152.622H143.355L145.946 155.156Z" fill="#F5F8FF"/>
</svg>
