<svg width="40" height="40" viewBox="0 0 40 40" fill="none" xmlns="http://www.w3.org/2000/svg">
<g clip-path="url(#clip0_15153_28703)">
<foreignObject x="-2.37434" y="-2.37434" width="44.7487" height="44.7487"><div xmlns="http://www.w3.org/1999/xhtml" style="backdrop-filter:blur(1.19px);clip-path:url(#bgblur_1_15153_28703_clip_path);height:100%;width:100%"></div></foreignObject><g filter="url(#filter0_i_15153_28703)" data-figma-bg-blur-radius="2.37434">
<path d="M20 40C31.0457 40 40 31.0457 40 20C40 8.95431 31.0457 0 20 0C8.95431 0 0 8.95431 0 20C0 31.0457 8.95431 40 20 40Z" fill="url(#paint0_linear_15153_28703)" fill-opacity="0.8"/>
<path d="M20 40C31.0457 40 40 31.0457 40 20C40 8.95431 31.0457 0 20 0C8.95431 0 0 8.95431 0 20C0 31.0457 8.95431 40 20 40Z" fill="url(#paint1_linear_15153_28703)" fill-opacity="0.5"/>
<path d="M20 40C31.0457 40 40 31.0457 40 20C40 8.95431 31.0457 0 20 0C8.95431 0 0 8.95431 0 20C0 31.0457 8.95431 40 20 40Z" fill="url(#paint2_radial_15153_28703)" fill-opacity="0.2" style="mix-blend-mode:plus-lighter"/>
<path d="M20 0.296875C30.8818 0.296875 39.7031 9.11822 39.7031 20C39.7031 30.8818 30.8818 39.7031 20 39.7031C9.11822 39.7031 0.296875 30.8818 0.296875 20C0.296875 9.11822 9.11822 0.296875 20 0.296875Z" stroke="url(#paint3_radial_15153_28703)" stroke-width="0.593585"/>
</g>
</g>
<defs>
<filter id="filter0_i_15153_28703" x="-2.37434" y="-2.37434" width="44.7487" height="44.7487" filterUnits="userSpaceOnUse" color-interpolation-filters="sRGB">
<feFlood flood-opacity="0" result="BackgroundImageFix"/>
<feBlend mode="normal" in="SourceGraphic" in2="BackgroundImageFix" result="shape"/>
<feColorMatrix in="SourceAlpha" type="matrix" values="0 0 0 0 0 0 0 0 0 0 0 0 0 0 0 0 0 0 127 0" result="hardAlpha"/>
<feOffset/>
<feGaussianBlur stdDeviation="6.65456"/>
<feComposite in2="hardAlpha" operator="arithmetic" k2="-1" k3="1"/>
<feColorMatrix type="matrix" values="0 0 0 0 0 0 0 0 0 0 0 0 0 0 0 0 0 0 0.25 0"/>
<feBlend mode="normal" in2="shape" result="effect1_innerShadow_15153_28703"/>
</filter>
<clipPath id="bgblur_1_15153_28703_clip_path" transform="translate(2.37434 2.37434)"><path d="M20 40C31.0457 40 40 31.0457 40 20C40 8.95431 31.0457 0 20 0C8.95431 0 0 8.95431 0 20C0 31.0457 8.95431 40 20 40Z"/>
</clipPath><linearGradient id="paint0_linear_15153_28703" x1="8.85142" y1="2.83194" x2="13.9689" y2="38.5017" gradientUnits="userSpaceOnUse">
<stop stop-color="#81C5B0"/>
<stop offset="0.617318" stop-color="#81C5B0" stop-opacity="0.81"/>
<stop offset="1" stop-color="#81C5B0" stop-opacity="0"/>
</linearGradient>
<linearGradient id="paint1_linear_15153_28703" x1="17.6439" y1="34.3309" x2="5.17299" y2="-11.1591" gradientUnits="userSpaceOnUse">
<stop stop-color="#EBE6E4" stop-opacity="0"/>
<stop offset="0.616058" stop-color="#6BA1A4"/>
<stop offset="1" stop-color="#0B3446" stop-opacity="0"/>
</linearGradient>
<radialGradient id="paint2_radial_15153_28703" cx="0" cy="0" r="1" gradientTransform="matrix(-16.519 15.7708 -18.1773 -20.8939 19.0831 18.156)" gradientUnits="userSpaceOnUse">
<stop offset="0.414268" stop-color="white"/>
<stop offset="0.784941" stop-color="white" stop-opacity="0.2"/>
</radialGradient>
<radialGradient id="paint3_radial_15153_28703" cx="0" cy="0" r="1" gradientTransform="matrix(-3.55716 -44.7455 34.9306 -8.33193 21.1874 35.145)" gradientUnits="userSpaceOnUse">
<stop stop-color="#EFFDFF"/>
<stop offset="0.19704" stop-color="#EBFAFC" stop-opacity="0.969833"/>
<stop offset="0.975175" stop-color="#62AB9B" stop-opacity="0"/>
</radialGradient>
<clipPath id="clip0_15153_28703">
<rect width="40" height="40" fill="white"/>
</clipPath>
</defs>
</svg>
