<svg width="370" height="209" viewBox="0 0 370 209" fill="none" xmlns="http://www.w3.org/2000/svg">
    <path
        d="M281.877 95.6699V199.072L272.949 208H97.4941L89 199.506V95.2363L98.2363 86H272.207L281.877 95.6699ZM104.102 153.435V161.818L108.389 166.01H134.111L138.398 161.818V153.435H104.102ZM154.402 133.987V161.837L158.755 165.912H264.05L268.402 161.837V133.987L264.05 129.912H158.755L154.402 133.987ZM126.97 144.449V151.309H138.402V144.449H126.97ZM104.102 144.447V151.307H115.534V144.447H104.102ZM108.389 129.745L104.102 133.937V142.32H138.398V133.937L134.111 129.745H108.389Z"
        fill="#F5F8FF" />
    <path
        d="M170.077 145.364L172.948 143.707L174.529 146.444L171.422 148.237L174.529 150.031L172.949 152.769L170.077 151.11V154.828H166.555V151.049L163.58 152.767L162 150.029L165.101 148.237L162 146.447L163.58 143.71L166.555 145.427V141.912H170.077V145.364Z"
        fill="#F5F8FF" />
    <path
        d="M187.077 145.364L189.948 143.707L191.529 146.444L188.422 148.237L191.529 150.031L189.949 152.769L187.077 151.11V154.828H183.555V151.049L180.58 152.767L179 150.029L182.101 148.237L179 146.447L180.58 143.71L183.555 145.427V141.912H187.077V145.364Z"
        fill="#F5F8FF" />
    <path
        d="M204.077 145.364L206.948 143.707L208.529 146.444L205.422 148.237L208.529 150.031L206.949 152.769L204.077 151.11V154.828H200.555V151.049L197.58 152.767L196 150.029L199.101 148.237L196 146.447L197.58 143.71L200.555 145.427V141.912H204.077V145.364Z"
        fill="#F5F8FF" />
    <path
        d="M221.077 145.364L223.948 143.707L225.529 146.444L222.422 148.237L225.529 150.031L223.949 152.769L221.077 151.11V154.828H217.555V151.049L214.58 152.767L213 150.029L216.101 148.237L213 146.447L214.58 143.71L217.555 145.427V141.912H221.077V145.364Z"
        fill="#F5F8FF" />
    <path
        d="M238.077 145.364L240.948 143.707L242.529 146.444L239.422 148.237L242.529 150.031L240.949 152.769L238.077 151.11V154.828H234.555V151.049L231.58 152.767L230 150.029L233.101 148.237L230 146.447L231.58 143.71L234.555 145.427V141.912H238.077V145.364Z"
        fill="#F5F8FF" />
    <path
        d="M255.077 145.364L257.948 143.707L259.529 146.444L256.422 148.237L259.529 150.031L257.949 152.769L255.077 151.11V154.828H251.555V151.049L248.58 152.767L247 150.029L250.101 148.237L247 146.447L248.58 143.71L251.555 145.427V141.912H255.077V145.364Z"
        fill="#F5F8FF" />
</svg>
