<svg width="16" height="16" viewBox="0 0 16 16" fill="none" xmlns="http://www.w3.org/2000/svg">
<path d="M13.9382 11.0134L11.9572 13.0831C11.9142 13.128 11.8621 13.1639 11.8042 13.1884C11.7463 13.2129 11.6838 13.2255 11.6207 13.2255H2.22998C2.18517 13.2255 2.14133 13.2127 2.10387 13.1888C2.0664 13.1648 2.03692 13.1308 2.01906 13.0907C2.0012 13.0507 1.99573 13.0064 2.00333 12.9634C2.01093 12.9204 2.03126 12.8805 2.06183 12.8486L4.04429 10.7789C4.08724 10.734 4.13917 10.6983 4.19688 10.6738C4.2546 10.6493 4.31685 10.6366 4.37981 10.6365H13.77C13.8148 10.6365 13.8587 10.6493 13.8961 10.6732C13.9336 10.6971 13.963 10.7312 13.981 10.7712C13.9988 10.8113 14.0043 10.8555 13.9967 10.8985C13.9891 10.9416 13.9687 10.9815 13.9382 11.0134ZM11.9572 6.84564C11.9142 6.80069 11.8621 6.76484 11.8042 6.74034C11.7463 6.71585 11.6838 6.70323 11.6207 6.70326H2.22998C2.18517 6.70326 2.14133 6.71601 2.10387 6.73995C2.0664 6.76389 2.03692 6.79797 2.01906 6.83799C2.0012 6.87803 1.99573 6.92228 2.00333 6.9653C2.01093 7.00831 2.03126 7.04823 2.06183 7.08016L4.04429 9.14983C4.08724 9.19467 4.13917 9.23044 4.19688 9.25493C4.2546 9.27942 4.31685 9.29212 4.37981 9.29222H13.77C13.8148 9.29222 13.8587 9.27947 13.8961 9.25553C13.9336 9.23159 13.963 9.19751 13.981 9.15748C13.9988 9.11744 14.0043 9.0732 13.9967 9.03018C13.9891 8.98717 13.9687 8.94725 13.9382 8.91532L11.9572 6.84564ZM2.22998 5.35899H11.6207C11.6838 5.35901 11.7463 5.34639 11.8042 5.3219C11.8621 5.2974 11.9142 5.26155 11.9572 5.21659L13.9382 3.14691C13.9687 3.115 13.9891 3.07508 13.9967 3.03206C14.0043 2.98904 13.9988 2.9448 13.981 2.90476C13.963 2.86473 13.9336 2.83065 13.8961 2.80671C13.8587 2.78277 13.8148 2.77002 13.77 2.77002H4.37981C4.31685 2.77012 4.2546 2.78282 4.19688 2.80731C4.13917 2.8318 4.08724 2.86757 4.04429 2.91241L2.06234 4.98209C2.0318 5.01397 2.01148 5.05386 2.00386 5.09682C1.99625 5.13979 2.00167 5.184 2.01947 5.22402C2.03727 5.26403 2.06666 5.29811 2.10406 5.32209C2.14145 5.34606 2.18521 5.35888 2.22998 5.35899Z" fill="white"/>
</svg>
