<?xml version="1.0" encoding="UTF-8"?>
<svg id="Layer_1" xmlns="http://www.w3.org/2000/svg" version="1.1" viewBox="0 0 16 16">
  <!-- Generator: Adobe Illustrator 29.1.0, SVG Export Plug-In . SVG Version: 2.1.0 Build 142)  -->
  <path d="M13.9,11l-2,2.1s0,0-.2.1c0,0-.1,0-.2,0H2.2s0,0-.1,0c0,0,0,0,0,0,0,0,0,0,0-.1,0,0,0,0,0-.1l2-2.1s0,0,.2-.1c0,0,.1,0,.2,0h9.4s0,0,.1,0c0,0,0,0,0,0,0,0,0,0,0,.1,0,0,0,0,0,.1ZM12,6.8s0,0-.2-.1c0,0-.1,0-.2,0H2.2s0,0-.1,0c0,0,0,0,0,0,0,0,0,0,0,.1,0,0,0,0,0,.1l2,2.1s0,0,.2.1c0,0,.1,0,.2,0h9.4s0,0,.1,0c0,0,0,0,0,0,0,0,0,0,0-.1,0,0,0,0,0-.1l-2-2.1ZM2.2,5.4h9.4c0,0,.1,0,.2,0,0,0,.1,0,.2-.1l2-2.1s0,0,0-.1,0,0,0-.1c0,0,0,0,0,0,0,0,0,0-.1,0H4.4c0,0-.1,0-.2,0,0,0-.1,0-.2.1l-2,2.1s0,0,0,.1c0,0,0,0,0,.1,0,0,0,0,0,0,0,0,0,0,.1,0Z"/>
</svg>