<svg width="362" height="204" viewBox="0 0 362 204" fill="none" xmlns="http://www.w3.org/2000/svg">
<g clip-path="url(#clip0_5163_141816)">
<path fill-rule="evenodd" clip-rule="evenodd" d="M134.5 80H227.5V95.5H243V173L181 204L119 173V95.5H134.5V80ZM185.48 137.071L181.217 141.137L188.66 143.491C195.814 145.774 197.981 148.912 196.825 156.188L196.536 158.186L197.331 157.33C199.932 154.476 201.233 152.265 201.233 148.913C201.233 144.49 198.632 141.351 193.429 139.639L185.48 137.071ZM192.2 123.375L170.522 116.242V116.385C171.028 120.736 172.329 122.805 176.231 124.089L187.503 127.798L192.2 123.375ZM174.135 147.843L169.221 152.479L189.382 159.684C189.888 154.476 188.226 152.408 183.385 150.838L174.135 147.843ZM164.958 128.083C163.73 129.153 163.007 130.437 163.007 131.793C163.007 134.004 164.452 135.716 167.921 136.857L175.436 139.283L179.699 135.217L172.04 132.72C168.499 131.579 166.259 129.938 164.958 128.083ZM210.121 143.063C210.121 151.766 201.594 158.828 185.697 169.242L160.189 160.326L155.058 164.962L151.879 161.61L168.354 145.988L163.585 144.419C157.587 142.493 155.709 138.997 155.709 135.502C155.709 131.793 158.021 128.797 163.73 125.587C163.513 124.802 163.441 124.089 163.441 123.375C163.441 116.884 172.112 110.393 178.977 108.182L201.161 115.386L205.858 111.32L209.037 114.673L193.212 129.653L198.993 131.579C206.653 134.075 210.121 137.285 210.121 143.063Z" fill="#F5F8FF"/>
</g>
<defs>
<clipPath id="clip0_5163_141816">
<rect width="362" height="203.63" fill="white"/>
</clipPath>
</defs>
</svg>
