<svg width="24" height="24" viewBox="0 0 24 24" fill="none" xmlns="http://www.w3.org/2000/svg">
<path fill-rule="evenodd" clip-rule="evenodd" d="M11.9943 9.45135C12.2574 9.45138 12.5136 9.49181 12.7523 9.56585C13.7897 9.88868 14.5425 10.8567 14.5425 12.0004C14.5423 13.1447 13.7883 14.1128 12.7497 14.4348L12.6916 14.4519C12.47 14.5149 12.2361 14.5485 11.9943 14.5485C11.7355 14.5485 11.4854 14.51 11.25 14.4383L11.2364 14.434C10.1989 14.1113 9.44548 13.144 9.44532 12.0004C9.44532 10.8515 10.2054 9.87998 11.25 9.56158L11.2962 9.54791C11.518 9.48494 11.7524 9.45135 11.9943 9.45135ZM11.9943 10.951C11.7034 10.951 11.44 11.0699 11.25 11.2612C11.0617 11.4508 10.945 11.712 10.945 12.0004C10.9451 12.2886 11.0618 12.55 11.25 12.7395C11.44 12.9306 11.7036 13.0488 11.9943 13.0488C12.291 13.0487 12.559 12.9256 12.7497 12.7275C12.931 12.5391 13.0427 12.2825 13.0428 12.0004C13.0428 11.7181 12.9311 11.4617 12.7497 11.2732C12.559 11.0749 12.2911 10.9511 11.9943 10.951Z" fill="white"/>
<path fill-rule="evenodd" clip-rule="evenodd" d="M12.0003 2.9998C16.9708 3 21 7.02982 21 12.0004C20.9998 16.9707 16.9707 20.9998 12.0003 21C7.02978 21 2.99995 16.9708 2.99976 12.0004C2.99976 7.0297 7.02965 2.9998 12.0003 2.9998ZM11.25 4.53706C7.45998 4.91337 4.49942 8.11125 4.49942 12.0004C4.49955 14.6622 5.88686 17.0004 7.97727 18.3314C7.91541 18.2287 7.85547 18.1248 7.79868 18.0204C6.9191 16.4035 6.42212 14.2722 6.42207 12.0004C6.42207 11.0394 6.51084 10.1029 6.68013 9.22063C7.22425 8.18018 8.06474 7.31877 9.08899 6.74854C8.36718 8.10147 7.92173 9.95566 7.92173 12.0004C7.92183 15.6702 9.3559 18.7244 11.25 19.3731V15.9807C11.4912 16.0255 11.7401 16.049 11.9943 16.049C12.2525 16.049 12.505 16.0243 12.7497 15.9781V19.4628C16.5397 19.0865 19.5002 15.8893 19.5003 12.0004C19.5003 9.3411 18.1163 7.00451 16.0293 5.67271C16.0903 5.77405 16.1485 5.87655 16.2045 5.97948C17.0841 7.59646 17.582 9.72834 17.582 12.0004C17.5819 12.9633 17.4922 13.9013 17.3222 14.7852C16.7775 15.8239 15.9378 16.6839 14.9142 17.253C15.6365 15.9 16.0822 14.0457 16.0823 12.0004C16.0823 8.32783 14.6458 5.27177 12.7497 4.62593V8.02175C12.505 7.97553 12.2525 7.95084 11.9943 7.95083C11.7401 7.95083 11.4912 7.97439 11.25 8.01919V4.53706Z" fill="white"/>
</svg>
