<svg width="24" height="24" viewBox="0 0 24 24" fill="none" xmlns="http://www.w3.org/2000/svg">
<g id="seeker_fingerprint">
<g id="Vector">
<path d="M14.8339 11.2229C14.0618 10.814 13.2065 10.5868 12.3332 10.5587C11.4599 10.5305 10.5917 10.7022 9.79486 11.0606C8.51896 11.6212 7.51262 12.6582 6.9905 13.9503C6.46838 15.2424 6.47181 16.6874 7.00007 17.977C7.05342 18.1192 7.16109 18.2345 7.2994 18.2974C7.43771 18.3602 7.59533 18.3656 7.73758 18.3122C7.87984 18.2589 7.99508 18.1512 8.05795 18.0129C8.12081 17.8746 8.12616 17.717 8.07282 17.5747C7.64299 16.5587 7.63171 15.4141 8.04143 14.3898C8.45114 13.3655 9.24871 12.5444 10.2607 12.1051C10.8993 11.8212 11.5943 11.687 12.2927 11.7127C12.9911 11.7384 13.6745 11.9233 14.2905 12.2533C14.891 12.5385 15.4178 12.9579 15.8302 13.4793C16.2427 14.0006 16.5296 14.6098 16.6689 15.2598C16.7245 15.4908 16.7326 15.7307 16.6926 15.9649C16.6525 16.199 16.5652 16.4226 16.436 16.6219C16.3006 16.7943 16.1202 16.9258 15.9146 17.0018C15.709 17.0778 15.4864 17.0953 15.2715 17.0525C14.6928 16.9254 14.4458 16.4173 14.0858 15.6057C13.961 15.1705 13.749 14.7653 13.4627 14.4147C13.1763 14.064 12.8217 13.7753 12.4203 13.566C12.0554 13.4285 11.6609 13.3887 11.2759 13.4506C10.8909 13.5125 10.5287 13.6739 10.2254 13.9189C9.89147 14.1787 9.63618 14.526 9.48791 14.9222C9.33964 15.3185 9.3042 15.748 9.38552 16.1632C9.59724 17.6312 11.3334 19.4167 11.5028 19.6143C11.611 19.7208 11.7568 19.7805 11.9086 19.7805C12.0604 19.7805 12.2062 19.7208 12.3144 19.6143C12.368 19.5612 12.4105 19.498 12.4395 19.4283C12.4685 19.3587 12.4834 19.284 12.4834 19.2085C12.4834 19.1331 12.4685 19.0584 12.4395 18.9887C12.4105 18.9191 12.368 18.8559 12.3144 18.8027C11.8557 18.3369 10.6276 16.9184 10.4936 15.9797C10.4458 15.7699 10.4589 15.5509 10.5314 15.3483C10.604 15.1458 10.7328 14.9682 10.9029 14.8364C11.0483 14.7167 11.2217 14.6359 11.4068 14.6013C11.5919 14.5668 11.7827 14.5796 11.9615 14.6388C12.4767 14.8505 12.7237 15.4222 13.006 16.0503C13.366 16.876 13.8176 17.8994 15.0033 18.1675C15.4311 18.2581 15.8758 18.2252 16.2856 18.0728C16.6954 17.9203 17.0535 17.6546 17.3182 17.3065C17.5452 16.9816 17.7026 16.6132 17.7803 16.2246C17.858 15.8359 17.8545 15.4353 17.7699 15.0481C17.6053 14.2286 17.2551 13.4576 16.7462 12.7945C16.2372 12.1314 15.5831 11.5938 14.8339 11.2229Z" fill="white"/>
<path fill-rule="evenodd" clip-rule="evenodd" d="M9.70566 10.86C10.5328 10.4881 11.4339 10.31 12.3402 10.3392C13.246 10.3684 14.1331 10.6038 14.934 11.0275C15.7121 11.4132 16.3916 11.9719 16.9204 12.6608C17.4494 13.3501 17.8135 14.1513 17.9848 15.0031C18.0755 15.4193 18.0791 15.8499 17.9956 16.2676C17.9119 16.686 17.7426 17.0826 17.4982 17.4323L17.4931 17.4395C17.2033 17.8207 16.811 18.1116 16.3622 18.2786C15.9134 18.4455 15.4263 18.4815 14.9579 18.3824L14.9549 18.3817C13.6545 18.0876 13.1639 16.9621 12.8109 16.1521L12.8053 16.1392C12.8001 16.1278 12.795 16.1164 12.79 16.1051C12.6529 15.8 12.5317 15.5302 12.3871 15.3082C12.2411 15.0839 12.0833 14.9284 11.8852 14.8448C11.7437 14.7994 11.5932 14.7899 11.4471 14.8172C11.2984 14.8449 11.1592 14.9099 11.0424 15.0059L11.0374 15.01C10.9004 15.1162 10.7966 15.2592 10.7382 15.4223C10.6797 15.5855 10.6692 15.762 10.7076 15.931L10.7096 15.9397L10.7109 15.9487C10.7697 16.36 11.08 16.911 11.4605 17.4404C11.8337 17.9595 12.2472 18.4215 12.47 18.6478C12.5437 18.7212 12.6022 18.8083 12.6422 18.9043C12.6823 19.0007 12.703 19.1041 12.703 19.2085C12.703 19.313 12.6823 19.4164 12.6422 19.5128C12.602 19.6092 12.5432 19.6967 12.469 19.7702L12.4684 19.7709C12.3191 19.9177 12.118 20 11.9086 20C11.6992 20 11.4981 19.9177 11.3488 19.7709L11.3422 19.7643L11.3361 19.7572C11.3235 19.7426 11.2993 19.716 11.2652 19.6787C11.0968 19.4939 10.6891 19.047 10.2832 18.4953C9.79993 17.8386 9.28474 16.99 9.16899 16.2C9.08122 15.7467 9.12041 15.2778 9.28227 14.8453C9.44455 14.4116 9.72377 14.0314 10.089 13.7468C10.4218 13.4785 10.8189 13.3016 11.241 13.2338C11.6638 13.1658 12.097 13.2095 12.4977 13.3606L12.5101 13.3652L12.5218 13.3713C12.9496 13.5944 13.3276 13.9021 13.6327 14.2758C13.9346 14.6455 14.159 15.0721 14.2926 15.5303C14.4718 15.9341 14.613 16.2367 14.7737 16.456C14.9285 16.6672 15.092 16.7877 15.3165 16.8375C15.491 16.872 15.6716 16.8575 15.8385 16.7959C16.0029 16.7351 16.1476 16.6307 16.2572 16.494C16.3672 16.3218 16.4417 16.1293 16.4761 15.9278C16.5112 15.723 16.5041 15.5133 16.4554 15.3113L16.4541 15.3059C16.3219 14.6888 16.0496 14.1104 15.658 13.6155C15.2665 13.1206 14.7664 12.7224 14.1963 12.4517L14.1915 12.4494L14.1868 12.4469C13.6003 12.1326 12.9497 11.9566 12.2847 11.9321C11.6197 11.9076 10.9579 12.0354 10.3498 12.3058L10.3481 12.3065C9.38923 12.7228 8.63351 13.5008 8.24529 14.4713C7.85707 15.4419 7.86776 16.5265 8.27503 17.4892L8.27681 17.4934L8.27841 17.4976C8.3522 17.6944 8.3448 17.9124 8.25783 18.1038C8.17087 18.2951 8.01146 18.444 7.81468 18.5178C7.6179 18.5916 7.39987 18.5842 7.20854 18.4972C7.01829 18.4108 6.86994 18.2526 6.79573 18.0574C6.24691 16.7155 6.24373 15.2123 6.78692 13.868C7.33038 12.5231 8.37774 11.4437 9.70566 10.86ZM12.3261 10.7781C11.4862 10.7511 10.6513 10.9162 9.88492 11.2609L9.88318 11.2616C8.65972 11.7992 7.69473 12.7935 7.19407 14.0325C6.69341 15.2715 6.6967 16.6571 7.20325 17.8938L7.20575 17.8999C7.23865 17.9876 7.30496 18.0587 7.39026 18.0975C7.47556 18.1362 7.57276 18.1395 7.66049 18.1066C7.74822 18.0737 7.81929 18.0073 7.85806 17.922C7.89629 17.8379 7.90003 17.7423 7.8686 17.6555C7.41819 16.5874 7.40699 15.3847 7.83756 14.3082C8.26865 13.2305 9.10772 12.3665 10.1723 11.9041C10.8413 11.6069 11.5693 11.4664 12.3008 11.4933C13.0309 11.5201 13.7452 11.713 14.3895 12.0573C15.0184 12.3568 15.5702 12.7967 16.0024 13.3431C16.4352 13.8901 16.7365 14.5292 16.883 15.2111C16.9451 15.4702 16.9539 15.7392 16.909 16.0019C16.8639 16.2654 16.7657 16.517 16.6202 16.7414L16.6148 16.7497L16.6087 16.7575C16.4483 16.9618 16.2344 17.1177 15.9907 17.2077C15.7471 17.2978 15.4833 17.3186 15.2285 17.2678L15.2244 17.267C14.8713 17.1894 14.6224 16.9924 14.4195 16.7156C14.2239 16.4486 14.0629 16.0956 13.8851 15.6947L13.879 15.6808L13.8748 15.6662C13.7582 15.2597 13.5601 14.8811 13.2926 14.5536C13.0279 14.2294 12.7007 13.9619 12.3305 13.7669C12.0049 13.6465 11.6536 13.6122 11.3107 13.6673C10.9635 13.7232 10.6369 13.8688 10.3633 14.0897L10.3602 14.0922C10.0584 14.3271 9.82759 14.641 9.69355 14.9992C9.55952 15.3574 9.52748 15.7457 9.60099 16.121L9.60205 16.1264L9.60284 16.1319C9.70039 16.8083 10.1579 17.5841 10.6369 18.235C11.0239 18.761 11.4023 19.1767 11.5808 19.3728C11.6164 19.4119 11.6441 19.4423 11.6623 19.4631C11.7288 19.5259 11.8169 19.5609 11.9086 19.5609C12.0026 19.5609 12.0929 19.524 12.1601 19.4581C12.1929 19.4255 12.219 19.3867 12.2368 19.3439C12.2547 19.301 12.2639 19.255 12.2639 19.2085C12.2639 19.1621 12.2547 19.1161 12.2368 19.0732C12.2189 19.0303 12.1927 18.9913 12.1597 18.9586L12.1579 18.9568C11.9218 18.717 11.4926 18.2373 11.1039 17.6967C10.7244 17.1687 10.3557 16.5451 10.2775 16.0196C10.2228 15.7718 10.2391 15.5134 10.3247 15.2743C10.411 15.0334 10.564 14.822 10.7659 14.6648C10.9394 14.5227 11.146 14.4266 11.3665 14.3855C11.588 14.3441 11.8165 14.3595 12.0305 14.4303L12.0378 14.4327L12.045 14.4357C12.3587 14.5646 12.58 14.7997 12.7551 15.0686C12.9189 15.3201 13.053 15.6187 13.1846 15.912C13.1919 15.9281 13.1991 15.9442 13.2063 15.9603L13.2073 15.9625C13.5735 16.8027 13.988 17.712 15.0503 17.9531C15.4369 18.0346 15.8387 18.0047 16.2091 17.867C16.5785 17.7295 16.9015 17.4904 17.1407 17.1771C17.3491 16.8779 17.4935 16.539 17.565 16.1815C17.6368 15.8226 17.6335 15.4526 17.5554 15.095L17.5546 15.0913C17.3966 14.3047 17.0605 13.5647 16.572 12.9282C16.0835 12.2917 15.4556 11.7757 14.7365 11.4197L14.7311 11.417C13.9885 11.0237 13.166 10.8052 12.3261 10.7781Z" fill="white"/>
<path d="M18.5109 10.6341C17.8362 9.56874 16.8957 8.6974 15.782 8.10588C14.6682 7.51437 13.4196 7.22306 12.1591 7.26064C10.864 7.2507 9.58546 7.55192 8.431 8.13898C7.27654 8.72603 6.27995 9.58175 5.52505 10.6341C5.45713 10.7619 5.43956 10.9105 5.4758 11.0506C5.51204 11.1907 5.59945 11.3122 5.72081 11.391C5.84217 11.4699 5.98866 11.5004 6.1314 11.4765C6.27414 11.4527 6.40277 11.3763 6.49193 11.2623C7.14029 10.3762 7.99088 9.65774 8.97292 9.16672C9.95497 8.67569 11.0401 8.42629 12.138 8.43925C13.1948 8.40159 14.2434 8.63784 15.182 9.12506C16.1206 9.61229 16.9173 10.3339 17.4946 11.2199C17.5445 11.3092 17.6172 11.3837 17.7052 11.4357C17.7932 11.4878 17.8934 11.5156 17.9957 11.5163C18.0937 11.5127 18.1898 11.4886 18.278 11.4458C18.3484 11.4097 18.4107 11.3595 18.461 11.2984C18.5112 11.2372 18.5484 11.1665 18.5703 11.0904C18.5921 11.0143 18.5981 10.9346 18.5879 10.8561C18.5777 10.7776 18.5515 10.7021 18.5109 10.6341Z" fill="white"/>
<path fill-rule="evenodd" clip-rule="evenodd" d="M12.1567 7.04105C13.4539 7.00309 14.7387 7.30321 15.8849 7.91197C17.0324 8.52137 18.0013 9.41906 18.6964 10.5167L18.5109 10.6341L18.6994 10.5216C18.7554 10.6153 18.7915 10.7195 18.8056 10.8278C18.8197 10.936 18.8114 11.046 18.7813 11.151C18.7512 11.2559 18.6999 11.3535 18.6306 11.4378C18.5612 11.5222 18.4753 11.5913 18.3782 11.6411L18.3741 11.6433C18.2584 11.6995 18.1324 11.7309 18.0039 11.7357L17.999 11.7359L17.9942 11.7359C17.8531 11.7349 17.7148 11.6965 17.5934 11.6247C17.4743 11.5543 17.3756 11.4541 17.307 11.3341C16.7506 10.4824 15.9838 9.78868 15.0809 9.31994C14.1759 8.85016 13.1648 8.62236 12.1458 8.65868L12.1406 8.65886L12.1354 8.6588C11.0724 8.64625 10.0219 8.88772 9.07112 9.3631C8.12034 9.83849 7.29684 10.5341 6.66913 11.3919L6.66497 11.3976C6.54199 11.5548 6.36446 11.6602 6.16757 11.6931C5.97067 11.726 5.7686 11.6839 5.6012 11.5752C5.43379 11.4664 5.31321 11.2989 5.26323 11.1056C5.21324 10.9124 5.23748 10.7074 5.33116 10.5311L5.33806 10.5181L5.34663 10.5062C6.12203 9.4252 7.14568 8.54625 8.33148 7.94326C9.51606 7.34089 10.8278 7.03151 12.1567 7.04105ZM18.3237 10.7489C17.6695 9.71696 16.7581 8.87293 15.679 8.2998C14.5989 7.72617 13.3881 7.44367 12.1657 7.48011L12.1574 7.48036C10.8975 7.47068 9.65364 7.76358 8.53053 8.33469C7.41227 8.90334 6.44626 9.73109 5.71301 10.7488C5.67581 10.8254 5.66698 10.9129 5.68837 10.9957C5.71086 11.0826 5.76511 11.158 5.84042 11.2069C5.91574 11.2558 6.00665 11.2748 6.09524 11.26C6.18281 11.2454 6.26183 11.1988 6.31708 11.1294C6.98579 10.2166 7.8626 9.4764 8.87473 8.97033C9.8865 8.46445 11.0043 8.20711 12.1353 8.21964C13.2283 8.18159 14.3125 8.42632 15.2832 8.93019C16.2554 9.43485 17.0805 10.1823 17.6786 11.1L17.6827 11.1063L17.6863 11.1128C17.7173 11.1682 17.7623 11.2144 17.817 11.2467C17.8702 11.2783 17.9307 11.2954 17.9925 11.2967C18.0575 11.2936 18.1212 11.2775 18.1798 11.2493C18.2227 11.227 18.2607 11.1963 18.2914 11.1589C18.3226 11.121 18.3457 11.077 18.3592 11.0298C18.3728 10.9826 18.3765 10.9331 18.3701 10.8844C18.3639 10.8366 18.3481 10.7905 18.3237 10.7489Z" fill="white"/>
<path d="M7.18358 6.84504C7.30505 6.84097 7.42273 6.80174 7.52234 6.73212C8.85528 5.85596 10.4158 5.38976 12.0109 5.39119C13.5792 5.38581 15.1131 5.85041 16.4148 6.72506C16.4745 6.77122 16.5427 6.8051 16.6155 6.82477C16.6884 6.84443 16.7644 6.84949 16.8392 6.83965C16.9139 6.82981 16.986 6.80527 17.0513 6.76743C17.1166 6.72959 17.1737 6.67922 17.2194 6.6192C17.2665 6.55991 17.3011 6.49175 17.3213 6.41879C17.3415 6.34583 17.3469 6.26955 17.337 6.19449C17.3271 6.11943 17.3022 6.04712 17.2638 5.98186C17.2255 5.91661 17.1743 5.85974 17.1135 5.81464C15.6171 4.77094 13.8353 4.21398 12.0109 4.21964C10.1673 4.22501 8.36686 4.77768 6.83776 5.80759C6.71594 5.89894 6.63503 6.03462 6.61257 6.18523C6.59011 6.33583 6.62792 6.48922 6.71779 6.61214C6.77258 6.68386 6.84302 6.74212 6.92374 6.78248C7.00446 6.82284 7.09334 6.84424 7.18358 6.84504Z" fill="white"/>
<path fill-rule="evenodd" clip-rule="evenodd" d="M12.0103 4.00007C13.8798 3.99428 15.7057 4.56503 17.2391 5.63455L17.2444 5.63821C17.3288 5.70085 17.3998 5.7799 17.4531 5.87053C17.5064 5.96116 17.541 6.06159 17.5547 6.16584C17.5684 6.27009 17.561 6.37604 17.5329 6.47738C17.5051 6.57799 17.4574 6.67202 17.3928 6.75396C17.3297 6.83626 17.2511 6.90538 17.1614 6.95738C17.0711 7.00975 16.9713 7.04372 16.8678 7.05734C16.7643 7.07096 16.6591 7.06396 16.5583 7.03674C16.4601 7.01022 16.3679 6.965 16.2868 6.90359C15.0227 6.05581 13.5339 5.60553 12.0117 5.61076L12.0107 5.61076C10.4595 5.60937 8.94189 6.06246 7.64535 6.91402C7.5115 7.00678 7.35374 7.05903 7.19094 7.06449L7.18358 6.84504L7.18163 7.0646C7.05795 7.0635 6.93617 7.03418 6.82555 6.97887C6.71493 6.92356 6.6184 6.84372 6.54331 6.74544L6.5405 6.74176C6.41653 6.5722 6.36443 6.36059 6.3954 6.15285C6.42638 5.9451 6.53799 5.75793 6.70604 5.63192L6.71049 5.62858L6.7151 5.62547C8.28026 4.57129 10.1232 4.00558 12.0103 4.00007ZM7.18092 6.62541C7.25826 6.62193 7.33306 6.59654 7.39657 6.55215L7.40169 6.54857C8.77037 5.64891 10.3728 5.17025 12.0107 5.17162C13.6226 5.16619 15.1993 5.64378 16.5373 6.54282L16.5434 6.5469L16.5492 6.55139C16.5859 6.57981 16.6279 6.60068 16.6728 6.61279C16.7176 6.62491 16.7644 6.62802 16.8105 6.62196C16.8566 6.6159 16.901 6.60078 16.9412 6.57748C16.9814 6.55418 17.0166 6.52315 17.0447 6.48618L17.0474 6.48265C17.0762 6.44642 17.0974 6.40479 17.1097 6.3602C17.1221 6.31562 17.1253 6.269 17.1193 6.22313C17.1133 6.17726 17.0981 6.13307 17.0746 6.09319C17.0516 6.05413 17.0212 6.01998 16.985 5.9927C15.5262 4.97614 13.7897 4.43369 12.0116 4.43921C10.2136 4.44445 8.45749 4.98285 6.96556 5.98624C6.89215 6.04288 6.84343 6.12578 6.82974 6.21761C6.81591 6.31032 6.83888 6.40472 6.89368 6.48069C6.92797 6.525 6.9718 6.56103 7.02193 6.58609C7.07138 6.61082 7.12568 6.62424 7.18092 6.62541Z" fill="white"/>
</g>
</g>
</svg>
