<svg width="400" height="400" viewBox="0 0 400 400" fill="none" xmlns="http://www.w3.org/2000/svg">
<path d="M257.8 152.6V219.8C257.8 222.2 257.1 224 255.6 225.2C254.1 226.4 252.5 227 250.7 227C248.9 227 247.3 226.4 245.8 225.2C244.3 224 243.6 222.2 243.6 219.8V152.7H176.3C173.9 152.7 172.1 152 170.9 150.5C169.7 149 169.1 147.4 169.1 145.6C169.1 143.8 169.7 142.2 170.9 140.7C172.1 139.2 173.9 138.5 176.3 138.5H243.6C247.6 138.5 250.9 139.9 253.7 142.7C256.5 145.5 257.9 148.9 257.9 152.8L257.8 152.6ZM156.2 254.1C152.2 254.1 148.9 252.7 146.1 249.9C143.3 247.1 141.9 243.7 141.9 239.8V156.7L136.1 150.9C134.9 149.7 134.3 148.1 134.3 146.3C134.3 144.5 134.9 142.9 136.1 141.7C137.3 140.5 138.9 139.9 140.7 139.9C142.5 139.9 144.1 140.5 145.3 141.7L254.4 250.8C255.6 252 256.2 253.6 256.2 255.4C256.2 257.2 255.6 258.8 254.4 260C253.2 261.2 251.6 261.8 249.8 261.8C248 261.8 246.4 261.2 245.2 260L239.4 254.2H156.3L156.2 254.1ZM213.2 228.1H168.5C167 228.1 166 227.4 165.3 226.1C164.6 224.8 164.7 223.5 165.6 222.3L177.6 206.1C178.3 205.2 179.2 204.7 180.4 204.7C181.6 204.7 182.5 205.1 183.3 206L195.2 221.1L200 214.8L156.3 171.1V239.8H225L213.3 228.1H213.2Z" fill="black"/>
</svg>
