<svg width="24" height="24" viewBox="0 0 24 24" fill="none" xmlns="http://www.w3.org/2000/svg">
<path d="M18.7404 10.5048L15.2788 13.9663C15.0913 14.1683 14.9976 14.4062 14.9976 14.6803C14.9976 14.9543 15.0986 15.1923 15.3005 15.3942C15.5024 15.5962 15.7476 15.6971 16.0361 15.6971C16.3245 15.6971 16.5625 15.5962 16.75 15.3942L20.9255 11.2404C21.0264 11.1394 21.1058 11.024 21.1635 10.8942C21.2212 10.7644 21.25 10.6346 21.25 10.5048C21.25 10.375 21.2212 10.2452 21.1635 10.1154C21.1058 9.98558 21.0264 9.87019 20.9255 9.76923L16.7284 5.59375C16.5264 5.39182 16.2885 5.29086 16.0144 5.29086C15.7404 5.29086 15.4952 5.39182 15.2788 5.59375C15.0769 5.79567 14.976 6.04086 14.976 6.32932C14.976 6.60336 15.0769 6.84134 15.2788 7.04327L18.7404 10.5048ZM12.7909 11.5216L10.3462 13.9663C10.1587 14.1683 10.0649 14.4062 10.0649 14.6803C10.0649 14.9543 10.1659 15.1923 10.3678 15.3942C10.5553 15.5962 10.7933 15.6971 11.0817 15.6971C11.3702 15.6971 11.6154 15.5962 11.8173 15.3942L15.9712 11.2404C16.0721 11.1394 16.1514 11.024 16.2091 10.8942C16.2668 10.7644 16.2957 10.6346 16.2957 10.5048C16.2957 10.375 16.2668 10.2452 16.2091 10.1154C16.1514 9.98558 16.0721 9.87019 15.9712 9.76923L11.7957 5.59375C11.5938 5.39182 11.3486 5.29086 11.0601 5.29086C10.7716 5.29086 10.5337 5.39182 10.3462 5.59375C10.1442 5.79567 10.0433 6.04086 10.0433 6.32932C10.0433 6.60336 10.1442 6.83413 10.3462 7.02163L12.7909 9.48798H7.92308C6.59615 9.48798 5.48558 9.93509 4.59135 10.8293C3.69712 11.7236 3.25 12.8269 3.25 14.1394V17.0385C3.25 17.3269 3.35096 17.5721 3.55288 17.774C3.75481 17.9615 4 18.0553 4.28846 18.0553C4.57692 18.0553 4.82212 17.9615 5.02404 17.774C5.21154 17.5721 5.30529 17.3269 5.30529 17.0385V14.1394C5.30529 13.3606 5.55048 12.7332 6.04086 12.2572C6.51683 11.7668 7.14423 11.5216 7.92308 11.5216H12.7909Z" fill="white"/>
</svg>
