<svg width="64" height="64" viewBox="0 0 64 64" fill="none" xmlns="http://www.w3.org/2000/svg">
<rect width="64" height="64" rx="20" fill="white"/>
<g clip-path="url(#clip0_15184_40620)">
<path d="M32 52C43.0457 52 52 43.0457 52 32C52 20.9543 43.0457 12 32 12C20.9543 12 12 20.9543 12 32C12 43.0457 20.9543 52 32 52Z" fill="#1D2323"/>
<path d="M41.8969 37.4033L38.5954 40.7685C38.5236 40.8416 38.4368 40.8999 38.3403 40.9397C38.2438 40.9795 38.1397 41 38.0345 41H22.3833C22.3086 41 22.2356 40.9792 22.1731 40.9403C22.1107 40.9014 22.0616 40.846 22.0318 40.7809C22.002 40.7158 21.9929 40.6439 22.0056 40.5739C22.0182 40.504 22.0521 40.4391 22.1031 40.3872L25.4072 37.022C25.4787 36.9491 25.5653 36.8909 25.6615 36.8511C25.7577 36.8113 25.8614 36.7906 25.9663 36.7905H41.6167C41.6914 36.7905 41.7645 36.8112 41.8269 36.8501C41.8893 36.889 41.9384 36.9445 41.9682 37.0095C41.998 37.0747 42.0071 37.1466 41.9944 37.2166C41.9818 37.2865 41.9479 37.3514 41.8969 37.4033ZM38.5954 30.6268C38.5236 30.5537 38.4368 30.4954 38.3403 30.4555C38.2438 30.4157 38.1397 30.3952 38.0345 30.3952H22.3833C22.3086 30.3952 22.2356 30.416 22.1731 30.4549C22.1107 30.4938 22.0616 30.5492 22.0318 30.6143C22.002 30.6794 21.9929 30.7514 22.0056 30.8213C22.0182 30.8912 22.0521 30.9562 22.1031 31.008L25.4072 34.3732C25.4787 34.4461 25.5653 34.5043 25.6615 34.5442C25.7577 34.584 25.8614 34.6046 25.9663 34.6048H41.6167C41.6914 34.6048 41.7645 34.584 41.8269 34.5451C41.8893 34.5062 41.9384 34.4508 41.9682 34.3857C41.998 34.3206 42.0071 34.2486 41.9944 34.1787C41.9818 34.1088 41.9479 34.0438 41.8969 33.992L38.5954 30.6268ZM22.3833 28.2095H38.0345C38.1397 28.2096 38.2438 28.189 38.3403 28.1492C38.4368 28.1094 38.5236 28.0511 38.5954 27.978L41.8969 24.6128C41.9479 24.5609 41.9818 24.496 41.9944 24.4261C42.0071 24.3561 41.998 24.2842 41.9682 24.2191C41.9384 24.154 41.8893 24.0986 41.8269 24.0597C41.7645 24.0208 41.6914 24 41.6167 24H25.9663C25.8614 24.0002 25.7577 24.0208 25.6615 24.0606C25.5653 24.1005 25.4787 24.1586 25.4072 24.2315L22.1039 27.5967C22.053 27.6486 22.0191 27.7134 22.0065 27.7833C21.9938 27.8531 22.0028 27.925 22.0325 27.9901C22.0621 28.0551 22.1111 28.1106 22.1734 28.1495C22.2358 28.1885 22.3087 28.2094 22.3833 28.2095Z" fill="url(#paint0_linear_15184_40620)"/>
</g>
<defs>
<linearGradient id="paint0_linear_15184_40620" x1="42" y1="21.9762" x2="25.4346" y2="39.8607" gradientUnits="userSpaceOnUse">
<stop stop-color="#AC6DFF"/>
<stop offset="1" stop-color="#39FFC4"/>
</linearGradient>
<clipPath id="clip0_15184_40620">
<rect x="12" y="12" width="40" height="40" rx="20" fill="white"/>
</clipPath>
</defs>
</svg>
