<svg width="40" height="40" viewBox="0 0 40 40" fill="none" xmlns="http://www.w3.org/2000/svg">
<g id="_qrCard/content/avatar" clip-path="url(#clip0_5208_3873)">
<path id="Vector" d="M19.4855 20.944L21.195 19.344L24.3983 20.352C26.4896 21.024 27.5353 22.256 27.5353 24C27.5353 25.312 27.0041 26.192 25.9585 27.312L25.6432 27.648L25.7593 26.864C26.2241 24 25.3444 22.768 22.473 21.872L19.4855 20.944ZM15.1867 11.168L23.917 13.968L22.0249 15.712L17.4938 14.256C15.917 13.744 15.4025 12.944 15.2033 11.232L15.1867 11.168ZM14.6722 25.408L16.6473 23.584L20.3651 24.768C22.3071 25.392 22.9875 26.192 22.7718 28.24L14.6722 25.408ZM12.166 17.28C12.166 16.752 12.4647 16.24 12.9461 15.824C13.4772 16.56 14.3734 17.2 15.8008 17.648L18.888 18.624L17.1784 20.224L14.1577 19.264C12.7469 18.816 12.166 18.144 12.166 17.28ZM7.68465 28.992L8.96265 30.304L11.0207 28.48L21.278 31.984C27.668 27.888 31.1037 25.12 31.1037 21.696C31.1037 19.424 29.7095 18.16 26.6224 17.184L24.2988 16.432L30.6722 10.544L29.3942 9.232L27.5021 10.832L18.5892 8C15.834 8.864 12.3319 11.424 12.3319 13.968C12.3319 14.256 12.3651 14.528 12.4481 14.832C10.1577 16.096 9.22821 17.264 9.22821 18.72C9.22821 20.096 9.9917 21.472 12.3983 22.224L14.3237 22.848L7.68465 28.992Z" fill="#F5F8FF"/>
</g>
<defs>
<clipPath id="clip0_5208_3873">
<rect width="40" height="40" fill="white"/>
</clipPath>
</defs>
</svg>
