<svg width="18" height="18" viewBox="0 0 18 18" fill="none" xmlns="http://www.w3.org/2000/svg">
    <mask id="mask0_65215_9389" style="mask-type:alpha" maskUnits="userSpaceOnUse" x="0" y="0"
        width="18" height="18">
        <rect width="18" height="18" fill="#D9D9D9" />
    </mask>
    <g mask="url(#mask0_65215_9389)">
        <path
            d="M4.43324 15.139C4.00249 15.139 3.63274 14.9846 3.32399 14.676C3.01537 14.3673 2.86105 13.9975 2.86105 13.5668C2.86105 13.1359 3.01537 12.767 3.32399 12.4601C3.63274 12.1534 4.00249 12 4.43324 12C4.86412 12 5.23299 12.1534 5.53987 12.4601C5.84662 12.767 5.99999 13.1359 5.99999 13.5668C5.99999 13.9975 5.84662 14.3673 5.53987 14.676C5.23299 14.9846 4.86412 15.139 4.43324 15.139ZM9.00055 15.139C8.5698 15.139 8.2008 14.9846 7.89355 14.676C7.5863 14.3673 7.43268 13.9975 7.43268 13.5668C7.43268 13.1359 7.58612 12.767 7.89299 12.4601C8.19974 12.1534 8.56855 12 8.99943 12C9.43018 12 9.79918 12.1534 10.1064 12.4601C10.4137 12.767 10.5673 13.1359 10.5673 13.5668C10.5673 13.9975 10.4139 14.3673 10.107 14.676C9.80024 14.9846 9.43143 15.139 9.00055 15.139ZM13.5667 15.139C13.1359 15.139 12.767 14.9846 12.4601 14.676C12.1534 14.3673 12 13.9975 12 13.5668C12 13.1359 12.1534 12.767 12.4601 12.4601C12.767 12.1534 13.1359 12 13.5667 12C13.9975 12 14.3672 12.1534 14.676 12.4601C14.9846 12.767 15.1389 13.1359 15.1389 13.5668C15.1389 13.9975 14.9846 14.3673 14.676 14.676C14.3672 14.9846 13.9975 15.139 13.5667 15.139ZM4.43324 10.5673C4.00249 10.5673 3.63274 10.4139 3.32399 10.107C3.01537 9.80027 2.86105 9.43146 2.86105 9.00058C2.86105 8.56983 3.01537 8.20083 3.32399 7.89358C3.63274 7.58633 4.00249 7.43271 4.43324 7.43271C4.86412 7.43271 5.23299 7.58615 5.53987 7.89302C5.84662 8.19977 5.99999 8.56858 5.99999 8.99946C5.99999 9.43021 5.84662 9.79921 5.53987 10.1065C5.23299 10.4137 4.86412 10.5673 4.43324 10.5673ZM9.00055 10.5673C8.5698 10.5673 8.2008 10.4139 7.89355 10.107C7.5863 9.80027 7.43268 9.43146 7.43268 9.00058C7.43268 8.56983 7.58612 8.20083 7.89299 7.89358C8.19974 7.58633 8.56855 7.43271 8.99943 7.43271C9.43018 7.43271 9.79918 7.58615 10.1064 7.89302C10.4137 8.19977 10.5673 8.56858 10.5673 8.99946C10.5673 9.43021 10.4139 9.79921 10.107 10.1065C9.80024 10.4137 9.43143 10.5673 9.00055 10.5673ZM13.5667 10.5673C13.1359 10.5673 12.767 10.4139 12.4601 10.107C12.1534 9.80027 12 9.43146 12 9.00058C12 8.56983 12.1534 8.20083 12.4601 7.89358C12.767 7.58633 13.1359 7.43271 13.5667 7.43271C13.9975 7.43271 14.3672 7.58615 14.676 7.89302C14.9846 8.19977 15.1389 8.56858 15.1389 8.99946C15.1389 9.43021 14.9846 9.79921 14.676 10.1065C14.3672 10.4137 13.9975 10.5673 13.5667 10.5673ZM4.43324 6.00002C4.00249 6.00002 3.63274 5.84665 3.32399 5.5399C3.01537 5.23302 2.86105 4.86415 2.86105 4.43327C2.86105 4.00252 3.01537 3.63277 3.32399 3.32402C3.63274 3.0154 4.00249 2.86108 4.43324 2.86108C4.86412 2.86108 5.23299 3.0154 5.53987 3.32402C5.84662 3.63277 5.99999 4.00252 5.99999 4.43327C5.99999 4.86415 5.84662 5.23302 5.53987 5.5399C5.23299 5.84665 4.86412 6.00002 4.43324 6.00002ZM9.00055 6.00002C8.5698 6.00002 8.2008 5.84665 7.89355 5.5399C7.5863 5.23302 7.43268 4.86415 7.43268 4.43327C7.43268 4.00252 7.58612 3.63277 7.89299 3.32402C8.19974 3.0154 8.56855 2.86108 8.99943 2.86108C9.43018 2.86108 9.79918 3.0154 10.1064 3.32402C10.4137 3.63277 10.5673 4.00252 10.5673 4.43327C10.5673 4.86415 10.4139 5.23302 10.107 5.5399C9.80024 5.84665 9.43143 6.00002 9.00055 6.00002ZM13.5667 6.00002C13.1359 6.00002 12.767 5.84665 12.4601 5.5399C12.1534 5.23302 12 4.86415 12 4.43327C12 4.00252 12.1534 3.63277 12.4601 3.32402C12.767 3.0154 13.1359 2.86108 13.5667 2.86108C13.9975 2.86108 14.3672 3.0154 14.676 3.32402C14.9846 3.63277 15.1389 4.00252 15.1389 4.43327C15.1389 4.86415 14.9846 5.23302 14.676 5.5399C14.3672 5.84665 13.9975 6.00002 13.5667 6.00002Z"
            fill="black" />
    </g>
</svg>
