<svg width="18" height="18" viewBox="0 0 18 18" fill="none" xmlns="http://www.w3.org/2000/svg">
    <mask id="mask0_65235_38447" style="mask-type:alpha" maskUnits="userSpaceOnUse" x="0" y="0"
        width="18" height="18">
        <rect width="18" height="18" fill="#D9D9D9" />
    </mask>
    <g mask="url(#mask0_65235_38447)">
        <path fill-rule="evenodd" clip-rule="evenodd"
            d="M2.99994 12.7499V4.49994C2.99994 3.67151 3.67152 2.99994 4.49994 2.99994H5.24994V2.24994C5.24994 1.83573 5.58573 1.49994 5.99994 1.49994C6.41416 1.49994 6.74994 1.83573 6.74994 2.24994V2.99994H11.2499V2.24994C11.2499 1.83573 11.5857 1.49994 11.9999 1.49994C12.4142 1.49994 12.7499 1.83573 12.7499 2.24994V2.99994H13.4999C14.3284 2.99994 14.9999 3.67151 14.9999 4.49994V13.4999C14.9999 15.1568 13.6568 16.4999 11.9999 16.4999H2.99994C1.38482 16.4999 0.0677518 15.2238 0.00214109 13.6244C-0.0181937 13.1277 0.385078 12.7499 0.843694 12.7499H2.99994ZM1.70063 14.2499C1.96 14.6982 2.4448 14.9999 2.99994 14.9999H9.40131C9.26711 14.7679 9.16439 14.5159 9.09589 14.2499H1.70063ZM4.49994 6.74994H13.4999V4.49994H4.49994V6.74994ZM9.65619 12.7499C10.1011 12.7499 10.4389 13.0841 10.4941 13.4824L10.5014 13.5629L10.5146 13.7109C10.6169 14.4392 11.2431 14.9999 11.9999 14.9999C12.8284 14.9999 13.4999 14.3284 13.4999 13.4999V8.24994H4.49994V12.7499H9.65619Z"
            fill="black" />
    </g>
</svg>
