<svg width="24" height="24" viewBox="0 0 24 24" fill="none" xmlns="http://www.w3.org/2000/svg">
    <mask id="mask0_69820_44775" style="mask-type:alpha" maskUnits="userSpaceOnUse" x="0" y="0"
        width="24" height="24">
        <rect width="24" height="24" fill="#D9D9D9" />
    </mask>
    <g mask="url(#mask0_69820_44775)">
        <path
            d="M11.9996 20.0996C11.6663 20.0996 11.3371 20.0329 11.0121 19.8996C10.6871 19.7663 10.4079 19.5579 10.1746 19.2746L2.67461 10.2246C2.49128 10.0079 2.34961 9.77461 2.24961 9.52461C2.14961 9.27461 2.09961 9.00794 2.09961 8.72461C2.09961 8.54128 2.12461 8.36211 2.17461 8.18711C2.22461 8.01211 2.29128 7.83294 2.37461 7.64961L4.17461 3.99961C4.35794 3.59961 4.64128 3.28711 5.02461 3.06211C5.40794 2.83711 5.83294 2.72461 6.29961 2.72461L17.6996 2.72461C18.1663 2.72461 18.5913 2.83711 18.9746 3.06211C19.3579 3.28711 19.6496 3.59961 19.8496 3.99961L21.6246 7.64961C21.7079 7.83294 21.7746 8.01211 21.8246 8.18711C21.8746 8.36211 21.8996 8.54128 21.8996 8.72461C21.8996 9.00794 21.8496 9.27461 21.7496 9.52461C21.6496 9.77461 21.5163 10.0079 21.3496 10.2246L13.8246 19.2746C13.5913 19.5579 13.3121 19.7663 12.9871 19.8996C12.6621 20.0329 12.3329 20.0996 11.9996 20.0996ZM9.17461 8.24961L14.8246 8.24961L13.0746 4.77461H10.9246L9.17461 8.24961ZM11.2496 17.3246V9.74961L4.94961 9.74961L11.2496 17.3246ZM12.7496 17.3246L19.0496 9.74961L12.7496 9.74961V17.3246ZM16.5246 8.24961H19.5496L17.8246 4.77461L14.7746 4.77461L16.5246 8.24961ZM4.44961 8.24961H7.49961L9.22461 4.77461L6.17461 4.77461L4.44961 8.24961Z"
            fill="url(#paint0_linear_69820_44775)" />
    </g>
    <defs>
        <linearGradient id="paint0_linear_69820_44775" x1="-24.5" y1="-55" x2="11.9996" y2="20.0996"
            gradientUnits="userSpaceOnUse">
            <stop />
            <stop offset="0.69" stop-color="#0F0704" />
            <stop offset="0.755" stop-color="#0B3446" />
            <stop offset="0.895851" stop-color="#31A79A" />
            <stop offset="0.937559" stop-color="#81C5B0" />
            <stop offset="1" stop-color="#CFE6E4" />
        </linearGradient>
    </defs>
</svg>
