<svg width="289" height="240" viewBox="0 0 289 240" fill="none" xmlns="http://www.w3.org/2000/svg">
<path d="M145.5 58.5C196.384 58.5 237.5 93.9379 237.5 137.5C237.5 181.062 196.384 216.5 145.5 216.5C94.6161 216.5 53.5 181.062 53.5 137.5C53.5 93.9379 94.6161 58.5 145.5 58.5Z" stroke="white"/>
<path d="M145.5 155.5C171.004 155.5 194.073 158.965 210.748 164.554C219.088 167.349 225.802 170.666 230.42 174.325C235.043 177.989 237.5 181.937 237.5 186C237.5 190.063 235.043 194.011 230.42 197.675C225.802 201.334 219.088 204.651 210.748 207.446C194.073 213.035 171.004 216.5 145.5 216.5C119.996 216.5 96.9274 213.035 80.252 207.446C71.9118 204.651 65.1982 201.334 60.5801 197.675C55.9566 194.011 53.5 190.063 53.5 186C53.5 181.937 55.9566 177.989 60.5801 174.325C65.1982 170.666 71.9118 167.349 80.252 164.554C96.9274 158.965 119.996 155.5 145.5 155.5Z" stroke="white"/>
<path d="M145.5 205.5C168.55 205.5 189.413 206.171 204.508 207.256C212.058 207.798 218.153 208.443 222.354 209.157C224.459 209.515 226.066 209.886 227.138 210.263C227.677 210.452 228.051 210.633 228.28 210.795C228.432 210.902 228.479 210.973 228.493 211C228.479 211.027 228.432 211.098 228.28 211.205C228.051 211.367 227.677 211.548 227.138 211.737C226.066 212.114 224.459 212.485 222.354 212.843C218.153 213.557 212.058 214.202 204.508 214.744C189.413 215.829 168.55 216.5 145.5 216.5C122.45 216.5 101.587 215.829 86.4922 214.744C78.9424 214.202 72.847 213.557 68.6455 212.843C66.5411 212.485 64.9341 212.114 63.8623 211.737C63.3232 211.548 62.9492 211.367 62.7197 211.205C62.5673 211.097 62.5202 211.027 62.5059 211C62.5202 210.973 62.5673 210.903 62.7197 210.795C62.9492 210.633 63.3232 210.452 63.8623 210.263C64.9341 209.886 66.5411 209.515 68.6455 209.157C72.847 208.443 78.9424 207.798 86.4922 207.256C101.587 206.171 122.45 205.5 145.5 205.5Z" stroke="white"/>
<path d="M145.5 21.5C196.283 21.5 237.5 65.1246 237.5 119C237.5 172.875 196.283 216.5 145.5 216.5C94.7166 216.5 53.5 172.875 53.5 119C53.5 65.1246 94.7166 21.5 145.5 21.5Z" stroke="white"/>
</svg>
