<svg width="24" height="24" viewBox="0 0 24 24" fill="none" xmlns="http://www.w3.org/2000/svg">
    <mask id="mask0_65801_6678" style="mask-type:alpha" maskUnits="userSpaceOnUse" x="0" y="0"
        width="24" height="24">
        <rect width="24" height="24" fill="#D9D9D9" />
    </mask>
    <g mask="url(#mask0_65801_6678)">
        <path
            d="M12.0061 22.2691C11.4361 22.2691 10.9484 22.0673 10.5429 21.6636C10.1372 21.2601 9.93438 20.7734 9.93438 20.2034H14.0719C14.0719 20.7734 13.87 21.2601 13.4664 21.6636C13.0627 22.0673 12.576 22.2691 12.0061 22.2691ZM5.72513 16.9284V10.1316C5.72513 8.86779 6.05554 7.72404 6.71638 6.70038C7.37721 5.67671 8.26854 4.91246 9.39037 4.40762C9.68354 4.27912 9.94704 4.28596 10.1809 4.42813C10.4147 4.57029 10.5856 4.77596 10.6936 5.04512C10.8016 5.31446 10.8071 5.60037 10.7101 5.90287C10.6133 6.20537 10.3703 6.46096 9.98112 6.66963C9.35246 7.01313 8.86513 7.48854 8.51913 8.09588C8.17313 8.70304 8.00013 9.38163 8.00013 10.1316V16.9284H16.0001V15.0816C16.0001 14.7625 16.1099 14.493 16.3294 14.2734C16.549 14.0539 16.8185 13.9441 17.1376 13.9441C17.4568 13.9441 17.7262 14.0539 17.9459 14.2734C18.1654 14.493 18.2751 14.7625 18.2751 15.0816V16.9284H19.0659C19.385 16.9284 19.6545 17.0381 19.8741 17.2576C20.0936 17.4773 20.2034 17.7467 20.2034 18.0659C20.2034 18.385 20.0936 18.6545 19.8741 18.8741C19.6545 19.0936 19.385 19.2034 19.0659 19.2034H4.93438C4.61521 19.2034 4.34579 19.0936 4.12612 18.8741C3.90662 18.6545 3.79688 18.385 3.79688 18.0659C3.79688 17.7467 3.90662 17.4773 4.12612 17.2576C4.34579 17.0381 4.61521 16.9284 4.93438 16.9284H5.72513ZM15.7479 10.4524C15.5599 10.377 15.3834 10.2945 15.2184 10.2046C15.0534 10.115 14.8851 10.0095 14.7136 9.88813L14.0186 10.1071C13.786 10.1778 13.5565 10.1695 13.3304 10.0821C13.104 9.99479 12.9285 9.84954 12.8039 9.64637L12.5919 9.27238C12.4674 9.05638 12.4237 8.82279 12.4609 8.57162C12.4982 8.32029 12.6145 8.11371 12.8099 7.95188L13.3359 7.50063C13.3025 7.29596 13.2859 7.09129 13.2859 6.88663C13.2859 6.68179 13.3025 6.47704 13.3359 6.27238L12.8099 5.81537C12.6145 5.65337 12.4982 5.45187 12.4609 5.21088C12.4237 4.97004 12.4674 4.74163 12.5919 4.52563L12.8289 4.12688C12.9535 3.92754 13.1239 3.78321 13.3399 3.69388C13.5557 3.60454 13.78 3.59521 14.0126 3.66588L14.7136 3.88488C14.8851 3.76354 15.0534 3.65904 15.2184 3.57137C15.3834 3.48371 15.5599 3.40221 15.7479 3.32688L15.8919 2.63163C15.9459 2.38229 16.0674 2.18088 16.2564 2.02738C16.4454 1.87371 16.6645 1.79688 16.9136 1.79688H17.3496C17.5988 1.79688 17.8179 1.87687 18.0069 2.03687C18.1959 2.19687 18.3174 2.40146 18.3714 2.65063L18.5154 3.32688C18.7034 3.40221 18.8799 3.48371 19.0449 3.57137C19.21 3.65904 19.3783 3.76354 19.5496 3.88488L20.2446 3.67188C20.4773 3.60121 20.7048 3.60954 20.9271 3.69687C21.1493 3.78421 21.3227 3.92754 21.4474 4.12688L21.6654 4.50063C21.794 4.71663 21.8387 4.95021 21.7994 5.20137C21.76 5.45271 21.6427 5.65937 21.4474 5.82137L20.9214 6.27238C20.9547 6.47704 20.9714 6.68179 20.9714 6.88663C20.9714 7.09129 20.9547 7.29596 20.9214 7.50063L21.4474 7.95188C21.6427 8.11371 21.76 8.31712 21.7994 8.56212C21.8387 8.80696 21.794 9.03738 21.6654 9.25338L21.4344 9.64637C21.3097 9.84954 21.1375 9.99379 20.9176 10.0791C20.6976 10.1645 20.4713 10.1718 20.2386 10.1011L19.5496 9.88813C19.3783 10.0095 19.21 10.115 19.0449 10.2046C18.8799 10.2945 18.7034 10.377 18.5154 10.4524L18.3714 11.1474C18.3174 11.3967 18.1959 11.5982 18.0069 11.7519C17.8179 11.9054 17.5988 11.9821 17.3496 11.9821H16.9136C16.6605 11.9821 16.4404 11.9021 16.2534 11.7421C16.0664 11.5823 15.9459 11.3777 15.8919 11.1284L15.7479 10.4524ZM17.1316 8.84463C17.6696 8.84463 18.1295 8.65279 18.5114 8.26913C18.893 7.88546 19.0839 7.42463 19.0839 6.88663C19.0839 6.34846 18.893 5.88854 18.5114 5.50688C18.1295 5.12521 17.6696 4.93438 17.1316 4.93438C16.5936 4.93438 16.1328 5.12521 15.7491 5.50688C15.3653 5.88854 15.1734 6.34846 15.1734 6.88663C15.1734 7.42463 15.3653 7.88546 15.7491 8.26913C16.1328 8.65279 16.5936 8.84463 17.1316 8.84463Z"
            fill="black" />
    </g>
</svg>
