<svg width="120" height="120" viewBox="0 0 120 120" fill="none" xmlns="http://www.w3.org/2000/svg">
    <g clip-path="url(#clip0_69624_44089)">
        <mask id="mask0_69624_44089" style="mask-type:luminance" maskUnits="userSpaceOnUse" x="0"
            y="0" width="120" height="120">
            <path d="M120 0H0V120H120V0Z" fill="white" />
        </mask>
        <g mask="url(#mask0_69624_44089)">
            <path
                d="M60 120C93.1371 120 120 93.1371 120 60C120 26.8629 93.1371 0 60 0C26.8629 0 0 26.8629 0 60C0 93.1371 26.8629 120 60 120Z"
                fill="white" />
            <path
                d="M44.5996 29.7554C44.9954 29.3822 45.4175 29.0266 45.8798 28.6978C49.1109 26.3599 53.5286 25.1954 59.1064 25.1954C64.6842 25.1954 69.3242 26.6534 73.0087 29.5733C76.2309 32.1245 78.293 35.4223 79.1774 39.4488H94.5064C94.0751 34.5022 92.4931 30.0444 89.7551 26.0712C86.6975 21.6267 82.5064 18.1733 77.1952 15.7067C71.8886 13.2355 65.5864 12 59.1064 12C53.8218 12 48.9863 12.7778 44.5996 14.3333V29.7554Z"
                fill="black" />
            <path
                d="M76.9515 90.244C76.8272 90.3683 76.0227 90.9594 75.4983 91.3194C71.9472 93.746 67.2893 94.9549 61.5293 94.9549C54.9559 94.9549 49.596 93.244 45.4582 89.8304C41.7027 86.746 39.4805 82.7816 38.7516 77.9284L23.5205 77.7949C23.9116 83.3593 25.5427 88.3595 28.4271 92.7906C31.5648 97.635 35.9827 101.391 41.6539 104.031C47.3338 106.671 53.8937 107.999 61.3738 107.999C67.0894 107.999 72.2806 107.133 76.9604 105.395V90.244H76.9515Z"
                fill="black" />
            <path
                d="M39.9208 61.8317C44.2454 63.6363 49.3298 65.0319 55.1831 66.014L55.863 66.1474C62.0632 67.3162 66.7876 68.3384 70.0319 69.2408C73.2765 70.1429 75.8853 71.5385 77.8674 73.423C79.8364 75.3073 80.8365 77.8141 80.8365 80.9607C80.8365 84.1073 79.9475 86.7608 78.1876 88.8941H94.743C95.903 85.9162 96.4809 82.7252 96.4809 79.3251C96.4809 73.4852 95.0586 68.774 92.223 65.1785L92.2497 65.1917C89.4141 61.5963 85.7831 58.9563 81.3786 57.2408C76.9742 55.5296 71.7076 54.134 65.5876 53.0585H65.4542C59.5209 51.9829 54.9297 50.9607 51.6854 49.9652C48.4542 48.9829 45.8586 47.6408 43.9298 45.9296C42.0009 44.2318 41.0274 41.8006 41.0274 38.6585C41.0274 35.5162 41.8053 33.1474 43.3698 31.1074H26.8674C25.9475 33.7961 25.481 36.6761 25.481 39.7474C25.481 45.494 26.7964 50.1651 29.4587 53.7473C32.1076 57.343 35.5919 60.0363 39.9165 61.8274L39.9208 61.8317Z"
                fill="black" />
        </g>
    </g>
    <defs>
        <clipPath id="clip0_69624_44089">
            <rect width="120" height="120" fill="white" />
        </clipPath>
    </defs>
</svg>
