<svg width="18" height="18" viewBox="0 0 18 18" fill="none" xmlns="http://www.w3.org/2000/svg">
    <mask id="mask0_66019_23042" style="mask-type:alpha" maskUnits="userSpaceOnUse" x="0" y="0"
        width="18" height="18">
        <rect width="18" height="18" fill="#D9D9D9" />
    </mask>
    <g mask="url(#mask0_66019_23042)">
        <path
            d="M9.00064 10.2378C8.85777 10.2378 8.7187 10.2207 8.58345 10.1865C8.4482 10.1522 8.31689 10.0993 8.18952 10.0278L1.98195 6.65416C1.82658 6.57016 1.71552 6.46297 1.64877 6.33259C1.58214 6.20209 1.54883 6.05916 1.54883 5.90378C1.54883 5.74828 1.58214 5.60609 1.64877 5.47722C1.71552 5.34822 1.82658 5.24178 1.98195 5.15791L8.18952 1.78403C8.31689 1.71253 8.4482 1.65966 8.58345 1.62541C8.7187 1.59128 8.85777 1.57422 9.00064 1.57422C9.14352 1.57422 9.28258 1.59128 9.41783 1.62541C9.55308 1.65966 9.68439 1.71253 9.81176 1.78403L16.0193 5.15791C16.1747 5.24178 16.2858 5.34822 16.3525 5.47722C16.4191 5.60609 16.4525 5.74828 16.4525 5.90378C16.4525 6.05916 16.4191 6.20209 16.3525 6.33259C16.2858 6.46297 16.1747 6.57016 16.0193 6.65416L9.81176 10.0278C9.68439 10.0993 9.55308 10.1522 9.41783 10.1865C9.28258 10.2207 9.14352 10.2378 9.00064 10.2378ZM9.00064 8.58091L13.9086 5.90828L9.00064 3.23097L4.09714 5.90828L9.00064 8.58091ZM9.00064 11.666L14.8613 8.48228C14.8952 8.46378 15.0274 8.42953 15.2579 8.37953C15.4913 8.37953 15.6881 8.45966 15.8483 8.61991C16.0085 8.78003 16.0885 8.97684 16.0885 9.21034C16.0885 9.35972 16.0535 9.49816 15.9835 9.62566C15.9136 9.75303 15.804 9.85722 15.6545 9.93822L9.81176 13.1177C9.68439 13.189 9.55308 13.2418 9.41783 13.2761C9.28258 13.3103 9.14352 13.3275 9.00064 13.3275C8.85777 13.3275 8.7187 13.3096 8.58345 13.2738C8.4482 13.2382 8.31689 13.1847 8.18952 13.1132L2.35133 9.93822C2.20183 9.85722 2.09214 9.75303 2.02227 9.62566C1.95227 9.49816 1.91727 9.35972 1.91727 9.21034C1.91727 8.97684 1.99733 8.78003 2.15745 8.61991C2.3177 8.45966 2.51452 8.37953 2.74789 8.37953C2.81939 8.37953 2.88627 8.38891 2.94852 8.40766C3.01077 8.42641 3.07608 8.45128 3.14445 8.48228L9.00064 11.666ZM9.00064 14.7558L14.8613 11.5719C14.9012 11.5505 15.0334 11.5178 15.2579 11.4737C15.4913 11.4737 15.6881 11.5538 15.8483 11.714C16.0085 11.8742 16.0885 12.071 16.0885 12.3045C16.0885 12.4538 16.0535 12.5923 15.9835 12.7198C15.9136 12.8473 15.804 12.9515 15.6545 13.0323L9.81176 16.2073C9.68439 16.2788 9.55308 16.3317 9.41783 16.3659C9.28258 16.4002 9.14352 16.4173 9.00064 16.4173C8.85777 16.4173 8.7187 16.4002 8.58345 16.3659C8.4482 16.3317 8.31689 16.2788 8.18952 16.2073L2.35133 13.0323C2.20183 12.9515 2.09214 12.8473 2.02227 12.7198C1.95227 12.5923 1.91727 12.4538 1.91727 12.3045C1.91727 12.071 1.99733 11.8742 2.15745 11.714C2.3177 11.5538 2.51452 11.4737 2.74789 11.4737C2.81639 11.4737 2.88252 11.483 2.94627 11.5018C3.01002 11.5205 3.07608 11.5454 3.14445 11.5764L9.00064 14.7558Z"
            fill="black" />
    </g>
</svg>
