<svg width="20" height="20" viewBox="0 0 20 20" fill="none" xmlns="http://www.w3.org/2000/svg">
    <mask id="mask0_63694_8671" style="mask-type:alpha" maskUnits="userSpaceOnUse" x="0" y="0"
        width="20" height="20">
        <rect width="20" height="20" fill="#D9D9D9" />
    </mask>
    <g mask="url(#mask0_63694_8671)">
        <path
            d="M7.81832 7.8422C8.09943 7.57095 8.42304 7.35018 8.78915 7.1799C9.1554 7.00963 9.55901 6.92449 9.99999 6.92449C10.4511 6.92449 10.8564 7.00963 11.2158 7.1799C11.5753 7.35018 11.8955 7.57095 12.1767 7.8422L16.0589 5.69803L10.8596 2.78053C10.5869 2.62497 10.3039 2.5472 10.0104 2.5472C9.71693 2.5472 9.43388 2.62497 9.16124 2.78053L3.92019 5.69803L7.81832 7.8422ZM9.1752 17.2172V12.9707C8.51908 12.8007 7.98006 12.445 7.55811 11.9034C7.13617 11.3621 6.9252 10.729 6.9252 10.0043C6.9252 9.87581 6.93047 9.75199 6.94103 9.63282C6.95158 9.51365 6.9761 9.39907 7.01457 9.28907L3.09561 7.10345V12.8387C3.09561 13.1568 3.17582 13.4506 3.33624 13.7199C3.49679 13.9892 3.71339 14.1963 3.98603 14.3412L9.1752 17.2172ZM10.0104 11.4245C10.4001 11.4245 10.7333 11.2851 11.01 11.0064C11.2868 10.7276 11.4252 10.3919 11.4252 9.99928C11.4252 9.58858 11.2868 9.24838 11.01 8.97865C10.7333 8.70893 10.4001 8.57407 10.0104 8.57407C9.62054 8.57407 9.28381 8.70893 9.0002 8.97865C8.71658 9.24838 8.57478 9.58511 8.57478 9.98886C8.57478 10.3926 8.71658 10.7328 9.0002 11.0095C9.28381 11.2862 9.62054 11.4245 10.0104 11.4245ZM10.8248 17.2172L16.0348 14.3203C16.3074 14.1755 16.5205 13.9688 16.6742 13.7003C16.8276 13.432 16.9044 13.1364 16.9044 12.8137V7.10345L12.9854 9.29178C13.0239 9.40969 13.0484 9.52532 13.0589 9.63865C13.0695 9.75199 13.0748 9.8722 13.0748 9.99928C13.0748 10.7253 12.8673 11.3603 12.4523 11.9045C12.0373 12.4487 11.4948 12.8057 10.8248 12.9757V17.2172Z"
            fill="black" />
    </g>
</svg>
